<?xml version="1.0" encoding="utf-8"?>
<!-- Generator: Adobe Illustrator 15.0.0, SVG Export Plug-In . SVG Version: 6.00 Build 0)  -->
<!DOCTYPE svg PUBLIC "-//W3C//DTD SVG 1.1//EN" "http://www.w3.org/Graphics/SVG/1.1/DTD/svg11.dtd">
<svg version="1.1" id="Layer_1" xmlns="http://www.w3.org/2000/svg" xmlns:xlink="http://www.w3.org/1999/xlink" x="0px" y="0px"
	 width="337.004px" height="73.85px" viewBox="0 0 337.004 73.85" enable-background="new 0 0 337.004 73.85" xml:space="preserve">
<polygon fill="#29235C" points="2.205,39.614 7.549,39.614 14.902,63.949 22.066,39.614 27.374,39.614 29.871,70.364 26.025,70.364 
	24.103,46.497 17.007,70.364 12.894,70.364 5.563,46.497 3.846,70.364 0,70.364 "/>
<g>
	<path fill="#29235C" d="M43.274,47.889c5.579,0,8.78,0.566,8.78,7.96c0,3.437-1.849,5.251-5.881,5.251h-8.78
		c0,4.917,1.117,5.93,4.369,5.93c3.738,0,6.721,0.036,9.872-0.427v2.794c-3.334,1.022-7.268,1.176-10.754,1.176
		c-5.672,0-7.352-2.882-7.352-11.468C33.528,49.25,36.333,47.889,43.274,47.889 M45.757,57.718c1.678,0,2.432-0.652,2.432-1.951
		c0-3.976-0.72-4.392-4.791-4.392c-4.299,0-6.018,0.079-6.005,6.343H45.757z"/>
	<path fill="#29235C" d="M62.91,47.72c1.891,0,5.318,0.57,7.83,1.617V37.386h3.829v32.977h-2.938l-0.897-2.415
		c-1.174,0.886-5.024,2.667-7.824,2.667c-5.927,0-7.332-5.678-7.332-11.3C55.578,53.217,56.611,47.72,62.91,47.72 M63.326,66.984
		c3.017,0,5.417-0.89,7.408-1.781V52.261c-2.527-0.712-4.501-1.022-7.408-1.022c-2.462,0-3.884,1.48-3.884,8.014
		C59.442,64.581,60.822,66.984,63.326,66.984"/>
	<path fill="#29235C" d="M78.846,41.861c0-0.631,0.336-1.051,1.008-1.051h2.73c0.63,0,0.96,0.462,0.96,1.051v2.665
		c0,0.631-0.372,0.967-0.96,0.967h-2.73c-0.588,0-1.008-0.378-1.008-0.967V41.861z M79.209,48.056h3.864v22.307h-3.864V48.056z"/>
	<path fill="#29235C" d="M87.913,39.613h12.802c3.463,0,7.673,1.336,7.673,9.063c0,8.943-4.451,9.527-7.673,9.483
		c-1.681-0.019-8.728-0.715-8.938-0.841v13.044h-3.864V39.613z M100.589,54.484c2.096,0,3.892-0.718,3.892-5.789
		c-0.072-4.992-2.422-5.364-3.892-5.364h-8.812v11.153H100.589z"/>
	<path fill="#29235C" d="M112.462,48.056h2.94l0.925,2.814c2.285-1.476,4.532-3.06,7.794-3.06c1.15,0,2.409,0.071,2.939,0.317v3.778
		c-0.53-0.107-1.91-0.214-3.14-0.214c-3.108,0-4.844,0.75-7.593,2.449v16.221h-3.865V48.056z"/>
	<path fill="#29235C" d="M138.739,47.889c5.579,0,8.78,0.566,8.78,7.96c0,3.437-1.849,5.251-5.881,5.251h-8.78
		c0,4.917,1.117,5.93,4.369,5.93c3.738,0,6.721,0.036,9.872-0.427v2.794c-3.334,1.022-7.268,1.176-10.754,1.176
		c-5.672,0-7.352-2.882-7.352-11.468C128.993,49.25,131.798,47.889,138.739,47.889 M141.222,57.718c1.678,0,2.432-0.652,2.432-1.951
		c0-3.976-0.72-4.392-4.791-4.392c-4.299,0-6.018,0.079-6.005,6.343H141.222z"/>
	<polygon fill="#29235C" points="153.635,48.056 160.034,65.154 166.537,48.056 170.721,48.056 162.006,70.363 157.953,70.363 
		149.445,48.056 	"/>
	<path fill="#29235C" d="M182.335,47.889c5.579,0,8.779,0.566,8.779,7.96c0,3.437-1.849,5.251-5.881,5.251h-8.779
		c0,4.917,1.116,5.93,4.368,5.93c3.738,0,6.722,0.036,9.872-0.427v2.794c-3.334,1.022-7.268,1.176-10.754,1.176
		c-5.672,0-7.352-2.882-7.352-11.468C172.589,49.25,175.395,47.889,182.335,47.889 M184.818,57.718c1.679,0,2.433-0.652,2.433-1.951
		c0-3.976-0.721-4.392-4.791-4.392c-4.299,0-6.019,0.079-6.005,6.343H184.818z"/>
	<path fill="#29235C" d="M195.033,48.056h2.878l0.987,2.542c2.386-1.444,4.517-2.92,7.918-2.92c4.654,0,6.826,3.482,6.826,7.331
		v15.354h-3.864V54.984c0-2.621-1.462-3.755-3.422-3.755c-3.09,0-4.634,0.776-7.458,2.268v16.866h-3.865V48.056z"/>
	<path fill="#29235C" d="M215.93,48.897l4.008-0.882l0.819-6.217h3.045v6.217h6.097v3.486h-6.097v10.628
		c0,3.554,0.91,4.355,2.264,4.718c0,0,3.191,0.882,3.485,0.882v2.605h-4.087c-3.254,0-5.526-2.03-5.526-7.953v-10.88h-4.008V48.897z
		"/>
	<path fill="#29235C" d="M233.027,41.861c0-0.631,0.336-1.051,1.008-1.051h2.731c0.63,0,0.96,0.462,0.96,1.051v2.665
		c0,0.631-0.372,0.967-0.96,0.967h-2.731c-0.588,0-1.008-0.378-1.008-0.967V41.861z M233.391,48.056h3.863v22.307h-3.863V48.056z"/>
	<path fill="#29235C" d="M251.382,47.889c5.579,0,8.779,0.566,8.779,7.96c0,3.437-1.849,5.251-5.881,5.251h-8.779
		c0,4.917,1.116,5.93,4.368,5.93c3.738,0,6.722,0.036,9.872-0.427v2.794c-3.334,1.022-7.268,1.176-10.754,1.176
		c-5.672,0-7.352-2.882-7.352-11.468C241.636,49.25,244.442,47.889,251.382,47.889 M253.865,57.718c1.679,0,2.433-0.652,2.433-1.951
		c0-3.976-0.721-4.392-4.791-4.392c-4.299,0-6.019,0.079-6.005,6.343H253.865z"/>
	<path fill="#1B61AA" d="M271.575,23.017c0.3-0.243,0.457-0.545,0.594-0.811c0.053-0.101,0.104-0.201,0.165-0.296
		c1.549-2.407,3.149-3.868,5.891-3.194c0.177,0.076,2.959,1.34,4.285,4.672c0.523,1.235,1.171,2.183,1.982,2.898
		c0.021,0.018,0.038,0.034,0.054,0.049c-0.027,0.012-0.057,0.026-0.092,0.042c-0.585,0.254-1.192,0.59-1.707,1.372
		c-0.507,1.014,0.019,1.633,0.419,2.103c1.622,1.91,3.499,2.844,5.725,2.844c0.193,0,0.391-0.007,0.589-0.021l1.942-0.138
		l-1.82-0.694c-0.258-0.098-0.508-0.189-0.752-0.279c-0.526-0.192-1.025-0.373-1.495-0.59c-0.093-0.043-0.19-0.085-0.292-0.127
		c-0.588-0.248-0.848-0.403-0.843-0.655c0.005-0.014,0.149-0.351,1.856-0.705l0.122-0.026c1.299-0.303,2.003-0.728,2.284-1.379
		c0.292-0.672,0.105-1.498-0.625-2.76c-0.11-0.194-0.239-0.388-0.369-0.587c-0.46-0.698-0.896-1.357-0.758-2.099
		c0.134-0.348,0.133-0.663-0.002-0.936c-0.151-0.308-0.455-0.526-0.926-0.667c-1.213-0.362-2.079-1.176-2.723-2.558
		c-0.222-0.475-0.497-1.067-1.026-1.435c-2.229-2.011-6.371-2.37-9.169-0.829c-2.469,0.884-4.081,3.489-4.011,6.481l0.021,0.877
		L271.575,23.017z"/>
	<path fill="#1B61AA" d="M272.53,35.428c0.832,0.576,1.718,0.918,2.706,1.044c0.286,0.037,0.583,0.055,0.885,0.055
		c0.649,0,1.326-0.082,2.064-0.252c0.237-0.044,0.473-0.09,0.71-0.136l0.182-0.036c1.773-0.351,3.448-0.681,5.155-0.253l2.643,0.664
		c0.046,0.015,0.096-0.009,0.12-0.052c0.022-0.042,0.016-0.095-0.02-0.129l-1.943-1.908c-1.28-1.258-2.786-1.332-3.95-1.255
		c-0.866,0.057-1.643,0.313-2.393,0.562c-0.479,0.158-0.974,0.322-1.343,0.397c-0.216,0.012-0.432,0.026-0.646,0.04
		c-1.202,0.077-2.334,0.152-3.401-0.233l-5.325-1.918c-0.051-0.017-0.106,0.004-0.132,0.052c-0.024,0.048-0.01,0.107,0.035,0.138
		L272.53,35.428z"/>
	<path fill="#1B61AA" d="M248.144,33.137c1.034,0.484,2.101,0.893,2.761,1.135c0.399,0.213,0.813,0.411,1.232,0.611
		c0.448,0.214,0.911,0.435,1.352,0.679c0.291,0.162,0.548,0.32,0.783,0.482c1.179,0.813,2.271,1.789,3.333,2.738
		c0.778,0.696,1.583,1.417,2.384,2.037c1.506,1.488,3.521,2.35,6.346,2.712c1.024,0.131,2.024,0.183,2.868,0.215l0.496,0.02
		c0.006,0.001,0.011,0.001,0.011,0.001c0.197,0,0.366-0.126,0.42-0.311c0.054-0.189-0.026-0.394-0.198-0.492l-1.017-0.592
		c-0.394-0.23-0.769-0.449-1.147-0.661c-1.108-0.621-2.109-0.903-3.081-1.177c-1.093-0.31-2.127-0.601-3.165-1.339l-1.448-1.283
		c-0.58-0.515-1.162-1.029-1.747-1.54c-0.571-0.499-1.327-1.147-2.119-1.741c-0.56-0.419-1.091-0.778-1.626-1.1
		c-0.822-0.494-1.62-0.876-2.457-1.174l-0.33-0.151c-0.64-0.33-1.216-0.608-1.766-0.851c-0.645-0.286-1.241-0.523-1.786-0.708
		l-0.867-0.394c-0.835-0.38-1.687-0.751-2.542-1.125c-2.562-1.116-5.211-2.271-7.594-3.753c-0.19-0.118-0.442-0.07-0.574,0.112
		s-0.104,0.436,0.068,0.582c3.138,2.673,6.345,4.712,9.763,6.212C247.007,32.577,247.546,32.857,248.144,33.137"/>
	<path fill="#1B61AA" d="M242.242,24.567c2.592,1.448,5.271,2.946,7.29,5.258c0.435,0.5,1.08,0.874,1.791,1.056
		c1.675,0.802,3.467,1.237,5.201,1.659c0.635,0.154,1.27,0.308,1.898,0.48c4.787,1.306,9.771,2.92,13.482,6.965l0.137,0.148
		c0.334,0.367,0.334,0.367,0.619,0.791l0.256,0.376c1.282,2.438,1.819,2.747,4.441,2.544c1.735-0.135,3.059-0.301,4.288-0.538
		c0.568-0.111,0.849-0.013,1.1,0.397l0.004,0.03c0.078,0.504,0.14,0.902-0.084,1.295l-0.081,0.137
		c-0.19,0.315-0.449,0.744-0.283,1.289c0.05,0.958,0.386,1.813,0.711,2.643c0.079,0.2,0.157,0.399,0.238,0.615
		c0.022,0.078,0.031,0.377,0.016,0.631c-0.04,0.797-0.188,1.52-0.456,2.21c-0.387,1.002-0.511,1.974-0.37,2.895
		c-0.196-0.333-0.396-0.676-0.599-1.023c-1.084-1.867-2.206-3.798-3.479-5.038c-0.502-0.639-2.999-1.974-3.791-2.171
		c-0.187-0.047-0.382,0.037-0.478,0.203c-0.096,0.167-0.069,0.377,0.065,0.515c0.209,0.215,0.685,0.724,1.158,1.232
		c0.48,0.515,0.959,1.027,1.164,1.237c2.146,2.321,8.553,11.711,8.621,13.498c0.071,1.852-1.27,2.677-2.823,3.634
		c-0.395,0.242-0.792,0.486-1.166,0.751c-0.139,0.097-0.206,0.268-0.174,0.435c0.032,0.166,0.16,0.298,0.325,0.336
		c0.195,0.045,0.549,0.068,0.899,0.068c0.314,0,0.627-0.019,0.814-0.057c2.153-0.438,4.558-1.11,5.835-3.597
		c1.199-2.613,1.013-5.195-0.601-8.053c0.047,0.012,0.098,0.021,0.149,0.025c1.933,0.951,4.472,1.804,7.129,0.183
		c0.143-0.087,0.341-0.184,0.493-0.135c0.164,0.05,0.811,0.566,1.038,0.962c0.233,0.405,0.001,1.28,0,1.389
		c-0.952,1.407-1.688,3.044-1.894,5.028c-0.166,0.482-0.396,1.143-0.62,1.792c-0.566,1.628-0.735,2.117-0.785,2.303
		c-0.11,0.268-1.183,2.923-1.747,4.29c-0.086,0.208,0.003,0.446,0.203,0.548c0.062,0.032,0.128,0.047,0.195,0.047
		c0.144,0,0.286-0.074,0.366-0.205c0.421-0.684,2.193-3.054,3.908-5.345c2.36-3.156,3.812-5.106,4.059-5.591
		c0.849-1.673,1.388-3.196,1.254-5.152c0.217-0.463,1.044-2.295,1.086-3.377c0.045-0.786-0.06-1.902-0.275-2.985l-0.423,0.083
		l0.422-0.084c-0.143-0.715-0.343-1.357-0.604-1.93c-0.022-0.043-0.055-0.095-0.092-0.154c-0.131-0.201-0.277-0.432-0.188-0.803
		l0.27-1.113c0.65-2.599-1.971-7.395-3.089-9.443c-0.15-0.275-0.271-0.494-0.347-0.643c0.085-0.358,0.291-0.674,0.525-1.034
		c0.698-1.071,2.414-3.183,3.929-5.046c0.964-1.187,1.875-2.309,2.479-3.102c0.133-0.175,0.112-0.422-0.047-0.573
		c-0.158-0.151-0.407-0.158-0.575-0.015c-1.353,1.149-7.145,6.222-8.684,8.236c-1.007,1.619-1.229,5.784-0.079,7.823
		c0.672,1.19,1.95,3.076,2.565,3.983c0.172,0.253,0.288,0.424,0.311,0.462c0.387,0.699,0.645,1.96,0.393,2.664
		c-0.08,0.395-0.146,0.838-0.129,1.319c-0.523-0.607-1.751-1.299-1.786-1.296c0.18-0.385,0.191-0.841,0.079-1.508
		c-0.401-2.367-1.318-4.581-2.787-6.744c-0.626-1.081-1.514-2.017-2.636-2.786c-1.73-1.183-3.227-2.204-5.638-1.158
		c-1.632,0.706-3.31,0.926-5.334,1.14c-1.599,0.167-3.222-0.343-4.793-0.839c-0.356-0.112-0.712-0.224-1.008-0.307
		c-2.159-0.982-4.194-2.298-6.221-4.021c-2.052-1.743-4.588-2.7-7.757-2.926c-1.097-0.078-2.191-0.171-3.286-0.263l-0.372-0.031
		c-1.201-0.102-2.304-0.513-3.471-0.948c-0.506-0.188-1.013-0.377-1.525-0.539l-0.428-0.336c-0.341-0.265-0.682-0.53-1.009-0.81
		c-3.021-2.588-6.674-4.715-11.145-6.494c-0.102-0.051-0.709-0.435-1.354-0.842c-1.503-0.95-3.745-2.367-4.634-2.797
		c-0.298-0.369-0.604-0.68-0.9-0.982c-0.618-0.627-1.151-1.169-1.385-1.98c-0.111-0.724-0.371-1.454-0.622-2.16
		c-0.073-0.21-0.148-0.419-0.219-0.627c-0.002-0.005-0.003-0.01-0.006-0.015c-0.017-0.09-0.036-0.181-0.062-0.275l-0.019-0.247
		c-0.013-0.142-0.03-0.271-0.048-0.396c-0.021-0.138-0.046-0.269-0.077-0.386c-0.129-0.492-0.364-0.839-0.737-1.092
		c-0.358-0.243-0.832-0.393-1.428-0.541c-1.129-0.59-2.26-0.608-3.359-0.05c-0.285,0.145-0.604,0.246-0.94,0.354l-0.338,0.11
		c-0.515,0.173-0.83,0.324-1.06,0.504c-0.38,0.3-0.521,0.709-0.423,1.215c0.053,0.275,0.176,0.596,0.393,1.032
		c0.035,0.077,0.066,0.159,0.098,0.24c0.038,0.1,0.077,0.199,0.12,0.291c0.068,0.154,0.146,0.279,0.233,0.384
		c0.076,0.09,0.12,0.156,0.147,0.2c-0.054,0.024-0.146,0.055-0.293,0.091l-0.12,0.024c-0.26,0.048-0.694,0.129-0.877,0.509
		c-0.122,0.251-0.093,0.551,0.082,0.884c0.256,0.509,0.673,1.371,1.55,1.285c0.954-0.082,1.569,0.454,2.215,1.035
		c0.841,1.315,2.155,1.726,3.905,1.222c0.151-0.044,0.266-0.165,0.301-0.318c0.035-0.153-0.016-0.313-0.133-0.417
		c-0.29-0.26-0.916-0.665-1.578-1.094c-0.551-0.357-1.12-0.725-1.37-0.934c-0.059-0.094-0.179-0.284-0.327-0.519
		c-0.347-0.549-0.851-1.348-1.067-1.696c0.169-0.127,0.522-0.297,0.928-0.161c0.514,0.171,1.554,1.376,2.054,1.955
		c0.316,0.365,0.448,0.516,0.554,0.592c0.384,0.276,1.183,0.959,2.028,1.681c1.956,1.672,3.278,2.78,3.752,2.925
		c0.734,0.342,4.714,2.325,5.382,2.71C241.184,23.976,241.712,24.272,242.242,24.567"/>
	<path fill="#1B61AA" d="M327.397,11.39l-1.549,1.385c-0.027,0.025-0.053,0.054-0.072,0.085c-0.052,0.078-0.131,0.149-0.227,0.205
		v0.001c-1.37,0.804-3.389,2.766-4.47,3.865l-0.067,0.067c-2.627,2.352-5.248,3.797-8.015,4.418
		c-2.419,0.543-4.688,2.064-5.863,3.33c-0.132,0.142-0.153,0.352-0.053,0.517c0.08,0.131,0.22,0.207,0.368,0.207
		c0.038,0,0.077-0.005,0.113-0.016c0.415-0.113,0.812-0.182,1.231-0.254c0.972-0.168,2.181-0.377,4.289-1.267
		c3.497-1.478,9.142-5.674,9.388-5.858c0.076-0.059,2.848-2.478,4.1-3.76c0.095-0.097,0.254-0.342,0.621-0.92
		c0.176-0.275,0.35-0.55,0.485-0.75l0.388-0.733c0.098-0.184,0.049-0.412-0.115-0.541C327.786,11.243,327.553,11.25,327.397,11.39"
		/>
	<path fill="#1B61AA" d="M336.953,5.697c-0.156-0.392-0.582-0.505-0.838-0.572l-0.117-0.033c-0.146-0.046-0.233-0.084-0.286-0.111
		c0.028-0.043,0.079-0.105,0.161-0.19c0.095-0.096,0.178-0.212,0.262-0.363c0.05-0.092,0.096-0.187,0.141-0.283
		c0.037-0.079,0.074-0.159,0.109-0.222c0.254-0.428,0.399-0.74,0.473-1.009c0.136-0.499,0.025-0.917-0.332-1.244
		c-0.215-0.198-0.521-0.372-1.02-0.581l-0.331-0.136c-0.327-0.131-0.636-0.255-0.91-0.421c-1.053-0.637-2.181-0.702-3.353-0.197
		c-0.607,0.104-1.091,0.22-1.465,0.435c-0.392,0.225-0.65,0.554-0.815,1.036c-0.039,0.114-0.073,0.241-0.105,0.38
		c-0.025,0.12-0.053,0.246-0.078,0.391l-0.035,0.244c-0.072,0.198-0.124,0.398-0.148,0.566c-0.113,0.307-0.305,0.659-0.492,1
		c-0.283,0.517-0.575,1.051-0.67,1.555c-1.513,3.22-3.653,4.696-4.684,5.408c-0.243,0.168-0.427,0.297-0.532,0.393
		c-0.951,0.87-2.155,1.457-3.902,1.902c-0.565,0.144-1.133,0.284-1.7,0.423c-1.266,0.312-2.574,0.635-3.853,1.003
		c-1.744,0.502-3.953,1.316-5.559,3.164c-1.66,1.913-3.105,2.814-4.984,3.109c-2.011,0.317-5.375,0.848-6.595,3.358
		c-0.204,0.419-0.82,0.777-1.365,1.092c-0.3,0.174-0.585,0.339-0.826,0.522l-0.243,0.183c-0.71,0.53-1.442,1.078-1.871,1.903
		c-0.661,0.958-0.632,1.973,0.091,3.014c0.083,0.118,0.215,0.185,0.354,0.185c0.037,0,0.074-0.005,0.11-0.014
		c0.176-0.047,0.303-0.198,0.318-0.379c0.058-0.651,0.37-1.121,0.732-1.666c0.14-0.21,0.283-0.426,0.418-0.659l0.522-0.545
		c0.533-0.546,3.963-3.018,5.248-3.496c2.056-0.765,3.54-1.317,5.622-1.339c3.341-0.036,5.997-1.232,7.899-3.557
		c1.874-2.292,3.961-3.64,6.569-4.241c1.638-0.377,5.263-3.22,8.967-6.264c0.021-0.02,0.042-0.047,0.058-0.07
		c0.878-1.311,2.74-3.928,3.494-4.45c0.407-0.282,0.705-0.593,0.945-0.842c0.136-0.141,0.324-0.331,0.377-0.31
		c0.269,0.308,0.369,1.29,0.361,1.99l-2.147,1.904l-2.915,1.93c-0.175,0.116-0.241,0.341-0.157,0.533
		c0.086,0.192,0.297,0.296,0.499,0.244c2.502-0.625,3.588-1.133,4.479-1.722c0.828-0.643,1.438-1.055,2.333-0.907
		c0.848,0.137,1.348-0.679,1.636-1.162C337.004,6.253,337.055,5.956,336.953,5.697"/>
</g>
</svg>
