<?xml version="1.0" encoding="UTF-8"?>
<svg width="29px" height="40px" viewBox="0 0 29 40" version="1.1" xmlns="http://www.w3.org/2000/svg" xmlns:xlink="http://www.w3.org/1999/xlink">
    <title>icon-ideal</title>
    <g id="icon-ideal" stroke="none" stroke-width="1" fill="none" fill-rule="evenodd">
        <g transform="translate(0.000000, 7.500000)" fill-rule="nonzero">
            <path d="M3.5,14.3 L7.9,14.3 L7.9,21.6 L3.5,21.6 L3.5,14.3 Z M8.2,10.7 C8.2,12.1 7.1,13.2 5.7,13.2 C4.3,13.2 3.2,12.1 3.2,10.7 C3.2,9.3 4.3,8.2 5.7,8.2 C7.1,8.2 8.2,9.3 8.2,10.7 L8.2,10.7 Z" id="Shape" fill="#010101"></path>
            <path d="M16.3,0.8 L0.4,0.8 L0.4,24.9 L16.3,24.9 C19.8,24.8 22.5,24 24.5,22.3 C26.9,20.3 28.1,17.1 28.1,12.8 C28.1,10.8 27.8,8.9 27.2,7.4 C26.6,5.9 25.7,4.6 24.6,3.6 C22.4,1.8 19.6,0.8 16.3,0.8 Z M16,2.4 C19.1,2.4 21.6,3.2 23.4,4.8 C25.4,6.6 26.4,9.3 26.4,12.8 C26.4,19.8 23,23.2 16,23.2 L2,23.2 L2,2.3 C3.4,2.4 15.4,2.4 16,2.4 Z" id="Shape" fill="#010101"></path>
            <path d="M15.5,21.7 L9.9,21.7 L9.9,4.3 L15.5,4.3 L15.3,4.3 C20,4.3 25,6.2 25,13 C25,20.2 20,21.6 15.3,21.6 L15.5,21.6 L15.5,21.7 L15.5,21.7 Z" id="Path" fill="#CC1B69"></path>
            <path d="M9,8.8 L10.5,8.8 C10.9,8.8 11.1,8.8 11.3,8.9 C11.5,9 11.8,9.1 11.9,9.3 C12.1,9.5 12.2,9.7 12.3,10 C12.4,10.3 12.4,10.6 12.4,11 C12.4,11.3 12.4,11.6 12.3,11.9 C12.2,12.2 12,12.5 11.9,12.6 C11.7,12.7 11.6,12.9 11.3,12.9 C11.1,13 10.9,13 10.6,13 L9,13 L9,8.8 L9,8.8 Z M9.8,9.5 L9.8,12.3 L10.9,12.3 C11,12.3 11.2,12.2 11.2,12.1 C11.2,12 11.4,11.9 11.4,11.7 C11.4,11.5 11.5,11.3 11.5,10.9 C11.5,10.6 11.5,10.3 11.4,10.2 C11.3,10 11.3,9.9 11.2,9.8 C11.1,9.7 11,9.6 10.8,9.6 L10.1,9.6 L9.8,9.5 L9.8,9.5 Z" id="Shape" fill="#FFFFFF"></path>
            <path d="M8.8,8.7 L8.8,13.1 L10.5,13.1 C10.8,13.1 11.1,13.1 11.3,13 C11.6,12.9 11.8,12.8 11.9,12.6 C12.1,12.4 12.3,12.1 12.4,11.8 C12.5,11.5 12.5,11.2 12.5,10.9 C12.5,10.5 12.4,10.2 12.4,9.9 C12.3,9.6 12.2,9.4 12,9.2 C11.8,9 11.6,8.9 11.3,8.8 C11.1,8.7 10.8,8.7 10.5,8.7 L8.8,8.7 L8.8,8.7 Z M10.5,8.9 C10.8,8.9 11.1,8.9 11.3,9 C11.5,9.1 11.7,9.2 11.9,9.4 C12.1,9.6 12.2,9.8 12.3,10 C12.4,10.3 12.4,10.6 12.4,10.9 C12.4,11.2 12.4,11.5 12.3,11.8 C12.2,12.1 12.1,12.3 11.9,12.5 C11.8,12.6 11.6,12.7 11.4,12.8 C11.2,12.9 11,12.9 10.7,12.9 L9.2,12.9 L9.2,9 C9.3,8.9 10.5,8.9 10.5,8.9 L10.5,8.9 Z" id="Shape" fill="#FFFFFF"></path>
            <path d="M9.7,9.4 L9.7,12.4 L10.9,12.4 C11.1,12.4 11.2,12.3 11.3,12.2 C11.4,12.1 11.5,12 11.6,11.7 C11.7,11.5 11.7,11.2 11.7,10.9 C11.7,10.6 11.7,10.3 11.6,10.1 C11.5,9.9 11.4,9.8 11.3,9.6 C11.2,9.5 11,9.4 10.9,9.4 L9.7,9.4 L9.7,9.4 Z M10.2,9.6 L10.9,9.6 C11,9.6 11.2,9.7 11.2,9.8 C11.2,9.9 11.4,10 11.4,10.2 C11.5,10.4 11.5,10.6 11.5,10.9 C11.5,11.2 11.5,11.5 11.4,11.6 C11.3,11.8 11.3,11.9 11.2,12 C11.1,12.1 11,12.1 10.9,12.2 L9.9,12.2 L9.9,9.7 C10,9.6 10.2,9.6 10.2,9.6 Z M13.4,13 L13.4,8.8 L16.5,8.8 L16.5,9.5 L14.2,9.5 L14.2,10.4 L16.3,10.4 L16.3,11.1 L14.2,11.1 L14.2,12.2 L16.5,12.2 L16.5,13 L13.4,13 Z" id="Shape" fill="#FFFFFF"></path>
            <path d="M13.3,8.7 L13.3,13.1 L16.7,13.1 L16.7,12.2 L14.4,12.2 L14.4,11.3 L16.5,11.3 L16.5,10.4 L14.4,10.4 L14.4,9.7 L16.7,9.7 L16.7,8.8 L13.3,8.7 L13.3,8.7 Z M16.4,8.9 L16.4,9.4 L14.1,9.4 L14.1,10.5 L16.2,10.5 L16.2,11 L14.1,11 L14.1,12.4 L16.4,12.4 L16.4,12.9 L13.5,12.9 L13.5,9 C13.7,8.9 16.2,8.9 16.4,8.9 L16.4,8.9 Z M21.3,13 L20.4,13 L20,12 L18.3,12 L18,13 L17.1,13 L18.7,8.8 L19.6,8.8 L21.3,13 L21.3,13 Z M19.7,11.3 L19.1,9.8 L18.5,11.3 L19.7,11.3 L19.7,11.3 Z" id="Shape" fill="#FFFFFF"></path>
            <path d="M18.6,8.7 L16.9,13.1 L18,13.1 C18,13.1 18.3,12.3 18.3,12.2 L19.8,12.2 C19.9,12.3 20.2,13.1 20.2,13.1 L21.4,13.1 L19.6,8.7 L18.6,8.7 L18.6,8.7 Z M19.5,8.9 C19.6,9 21,12.6 21.1,12.8 L20.4,12.8 C20.3,12.7 20,11.9 20,11.9 L18.2,11.9 C18.2,11.9 17.9,12.7 17.9,12.8 L17.3,12.8 C17.4,12.5 18.8,9 18.8,8.9 L19.5,8.9 L19.5,8.9 Z" id="Shape" fill="#FFFFFF"></path>
            <path d="M18.4,11.4 L19.9,11.4 L19.2,9.4 L18.4,11.4 Z M19.2,10.1 C19.3,10.4 19.5,11 19.6,11.2 L18.8,11.2 C18.8,11 19,10.4 19.2,10.1 L19.2,10.1 Z M22,13 L22,8.9 L22.8,8.9 L22.8,12.3 L24.9,12.3 L24.9,13 L22,13" id="Shape" fill="#FFFFFF"></path>
            <path d="M21.9,8.7 L21.9,13.1 L25.1,13.1 L25.1,12.2 L23,12.2 L23,8.8 L21.9,8.8 L21.9,8.7 L21.9,8.7 Z M22.7,8.9 L22.7,12.3 L24.8,12.3 L24.8,12.8 L22.1,12.8 L22.1,8.9 L22.7,8.9 L22.7,8.9 Z" id="Shape" fill="#FFFFFF"></path>
        </g>
    </g>
</svg>