<?xml version="1.0" encoding="UTF-8"?>
<svg width="77px" height="40px" viewBox="0 0 77 40" version="1.1" xmlns="http://www.w3.org/2000/svg" xmlns:xlink="http://www.w3.org/1999/xlink">
    <title>icon-paypal</title>
    <defs>
        <polygon id="path-1" points="0.103781513 0.917647059 73.9743697 0.917647059 73.9743697 18.8117647 0.103781513 18.8117647"></polygon>
        <polygon id="path-3" points="0.103781513 0.917647059 73.9743697 0.917647059 73.9743697 18.8117647 0.103781513 18.8117647"></polygon>
        <polygon id="path-5" points="0.103781513 0.917647059 73.9743697 0.917647059 73.9743697 18.8117647 0.103781513 18.8117647"></polygon>
        <polygon id="path-7" points="0.103781513 0.917647059 73.9743697 0.917647059 73.9743697 18.8117647 0.103781513 18.8117647"></polygon>
        <polygon id="path-9" points="0.103781513 0.917647059 73.9743697 0.917647059 73.9743697 18.8117647 0.103781513 18.8117647"></polygon>
    </defs>
    <g id="icon-paypal" stroke="none" stroke-width="1" fill="none" fill-rule="evenodd">
        <g transform="translate(0.000000, 10.500000)" id="Clipped">
            <g>
                <mask id="mask-2" fill="white">
                    <use xlink:href="#path-1"></use>
                </mask>
                <g id="Path"></g>
                <path d="M6.64201681,5.16176471 L11.6890756,5.16176471 C14.4420168,5.16176471 15.4743697,6.53823529 15.244958,8.60294118 C15.0155462,11.9294118 12.9508403,13.7647059 10.312605,13.7647059 L8.93613445,13.7647059 C8.59201681,13.7647059 8.36260504,13.9941176 8.24789916,14.6823529 L7.67436975,18.4676471 C7.67436975,18.6970588 7.44495798,18.8117647 7.3302521,18.9264706 L4.11848739,18.9264706 C3.77436975,18.9264706 3.65966387,18.6970588 3.77436975,18.2382353 L5.72436975,5.96470588 C5.83907563,5.39117647 6.06848739,5.16176471 6.64201681,5.16176471" id="Path" fill="#00AEEF" fill-rule="nonzero" mask="url(#mask-2)"></path>
            </g>
            <g>
                <mask id="mask-4" fill="white">
                    <use xlink:href="#path-3"></use>
                </mask>
                <g id="Path"></g>
                <path d="M28.5508403,4.93235294 C30.2714286,4.93235294 31.8773109,5.85 31.6478992,8.14411765 C31.4184874,10.8970588 29.9273109,12.3882353 27.6331933,12.3882353 L25.6831933,12.3882353 C25.3390756,12.3882353 25.2243697,12.6176471 25.2243697,13.0764706 L24.8802521,15.6 C24.7655462,15.9441176 24.6508403,16.1735294 24.3067227,16.1735294 L22.4714286,16.1735294 C22.1273109,16.1735294 22.012605,15.9441176 22.1273109,15.6 L23.7331933,5.62058824 C23.8478992,5.16176471 23.962605,4.93235294 24.3067227,4.93235294 L28.5508403,4.93235294 L28.5508403,4.93235294 Z M25.4537815,10.2088235 L26.944958,10.2088235 C27.862605,10.2088235 28.5508403,9.52058824 28.5508403,8.37352941 C28.5508403,7.68529412 28.0920168,7.11176471 27.2890756,7.11176471 L25.7978992,7.11176471 L25.4537815,10.2088235 Z M36.694958,15.3705882 C36.9243697,15.2558824 37.0390756,15.1411765 37.0390756,15.3705882 L36.9243697,15.8294118 C36.9243697,16.0588235 37.0390756,16.1735294 37.2684874,16.1735294 L38.9890756,16.1735294 C39.2184874,16.1735294 39.4478992,16.0588235 39.4478992,15.6 L40.4802521,9.17647059 C40.4802521,8.83235294 40.4802521,8.71764706 40.2508403,8.71764706 L38.4155462,8.71764706 C38.3008403,8.71764706 38.1861345,8.83235294 38.0714286,9.06176471 L37.9567227,9.52058824 C37.9567227,9.75 37.8420168,9.75 37.7273109,9.52058824 C37.3831933,8.83235294 36.5802521,8.48823529 35.5478992,8.48823529 C32.9096639,8.60294118 31.1890756,10.4382353 31.0743697,12.9617647 C30.9596639,14.9117647 32.3361345,16.4029412 34.1714286,16.4029412 C35.4331933,16.4029412 36.0067227,16.0588235 36.694958,15.3705882 L36.694958,15.3705882 Z M35.3184874,14.4529412 C34.1714286,14.4529412 33.4831933,13.5352941 33.5978992,12.5029412 C33.712605,11.4705882 34.744958,10.5529412 35.8920168,10.5529412 C37.0390756,10.5529412 37.7273109,11.4705882 37.612605,12.5029412 C37.4978992,13.5352941 36.4655462,14.4529412 35.3184874,14.4529412 L35.3184874,14.4529412 Z M43.6920168,8.71764706 L41.9714286,8.71764706 C41.6273109,8.71764706 41.512605,8.94705882 41.6273109,9.29117647 L43.6920168,15.4852941 L41.6273109,18.4676471 C41.3978992,18.6970588 41.6273109,18.9264706 41.8567227,18.9264706 L43.8067227,18.9264706 C44.1508403,18.9264706 44.2655462,18.8117647 44.3802521,18.6970588 L50.8037815,9.40588235 C51.0331933,9.06176471 50.9184874,8.83235294 50.5743697,8.83235294 L48.7390756,8.83235294 C48.394958,8.83235294 48.2802521,8.94705882 48.1655462,9.17647059 L45.412605,13.0764706 L44.2655462,9.17647059 C44.2655462,8.83235294 44.0361345,8.71764706 43.6920168,8.71764706 Z" id="Shape" fill="#03428E" fill-rule="nonzero" mask="url(#mask-4)"></path>
            </g>
            <g>
                <mask id="mask-6" fill="white">
                    <use xlink:href="#path-5"></use>
                </mask>
                <g id="Path"></g>
                <path d="M57.5714286,4.93235294 C59.2920168,4.93235294 60.8978992,5.85 60.6684874,8.14411765 C60.4390756,10.8970588 58.9478992,12.3882353 56.6537815,12.3882353 L54.5890756,12.3882353 C54.244958,12.3882353 54.1302521,12.6176471 54.1302521,13.0764706 L53.7861345,15.6 C53.6714286,15.9441176 53.5567227,16.1735294 53.212605,16.1735294 L51.3773109,16.1735294 C51.0331933,16.1735294 50.9184874,15.9441176 51.0331933,15.6 L52.6390756,5.62058824 C52.7537815,5.16176471 52.8684874,4.93235294 53.212605,4.93235294 L57.5714286,4.93235294 L57.5714286,4.93235294 Z M54.4743697,10.2088235 L55.9655462,10.2088235 C56.8831933,10.2088235 57.5714286,9.52058824 57.5714286,8.37352941 C57.5714286,7.68529412 57.112605,7.11176471 56.3096639,7.11176471 L54.8184874,7.11176471 L54.4743697,10.2088235 Z M65.7155462,15.3705882 C65.944958,15.2558824 66.0596639,15.1411765 66.0596639,15.3705882 L65.944958,15.8294118 C65.944958,16.0588235 66.0596639,16.1735294 66.2890756,16.1735294 L68.0096639,16.1735294 C68.2390756,16.1735294 68.4684874,16.0588235 68.4684874,15.6 L69.5008403,9.17647059 C69.5008403,8.83235294 69.5008403,8.71764706 69.2714286,8.71764706 L67.4361345,8.71764706 C67.3214286,8.71764706 67.2067227,8.83235294 67.0920168,9.06176471 L66.9773109,9.52058824 C66.9773109,9.75 66.862605,9.75 66.7478992,9.52058824 C66.4037815,8.83235294 65.6008403,8.48823529 64.5684874,8.48823529 C61.9302521,8.60294118 60.2096639,10.4382353 60.094958,12.9617647 C59.9802521,14.9117647 61.3567227,16.4029412 63.1920168,16.4029412 C64.4537815,16.4029412 65.1420168,16.0588235 65.7155462,15.3705882 L65.7155462,15.3705882 Z M64.3390756,14.4529412 C63.1920168,14.4529412 62.5037815,13.5352941 62.6184874,12.5029412 C62.7331933,11.4705882 63.7655462,10.5529412 64.912605,10.5529412 C66.0596639,10.5529412 66.7478992,11.4705882 66.6331933,12.5029412 C66.5184874,13.5352941 65.4861345,14.4529412 64.3390756,14.4529412 Z M72.0243697,16.1735294 L70.1890756,16.1735294 C70.0743697,16.1735294 69.9596639,16.0588235 69.9596639,15.9441176 L71.6802521,5.16176471 C71.6802521,5.04705882 71.9096639,4.93235294 72.0243697,4.93235294 L73.9743697,4.93235294 C74.0890756,4.93235294 74.2037815,5.04705882 74.2037815,5.16176471 L72.4831933,15.9441176 C72.3684874,16.0588235 72.2537815,16.1735294 72.0243697,16.1735294 L72.0243697,16.1735294 Z" id="Shape" fill="#00AEEF" fill-rule="nonzero" mask="url(#mask-6)"></path>
            </g>
            <g>
                <mask id="mask-8" fill="white">
                    <use xlink:href="#path-7"></use>
                </mask>
                <g id="Path"></g>
                <path d="M3.4302521,0.917647059 L8.47731092,0.917647059 C9.85378151,0.917647059 11.5743697,0.917647059 12.7214286,1.95 C13.5243697,2.63823529 13.8684874,3.67058824 13.7537815,4.81764706 C13.4096639,8.71764706 11.1155462,10.7823529 8.01848739,10.7823529 L5.49495798,10.7823529 C5.03613445,10.7823529 4.80672269,11.0117647 4.69201681,11.8147059 L4.00378151,16.2882353 C4.00378151,16.6323529 3.77436975,16.7470588 3.65966387,16.7470588 L0.562605042,16.7470588 C0.218487395,16.7470588 0.103781513,16.5176471 0.218487395,15.9441176 L2.51260504,1.72058824 C2.51260504,1.14705882 2.85672269,0.917647059 3.4302521,0.917647059" id="Path" fill="#03428E" fill-rule="nonzero" mask="url(#mask-8)"></path>
            </g>
            <g>
                <mask id="mask-10" fill="white">
                    <use xlink:href="#path-9"></use>
                </mask>
                <g id="Path"></g>
                <path d="M4.80672269,11.4705882 L5.72436975,5.85 C5.83907563,5.39117647 6.06848739,5.16176471 6.64201681,5.16176471 L11.6890756,5.16176471 C12.4920168,5.16176471 13.1802521,5.27647059 13.7537815,5.50588235 C13.294958,8.94705882 11.0008403,10.8970588 8.13319328,10.8970588 L5.60966387,10.8970588 C5.26554622,10.8970588 5.03613445,11.0117647 4.80672269,11.4705882" id="Path" fill="#0E3178" fill-rule="nonzero" mask="url(#mask-10)"></path>
            </g>
        </g>
    </g>
</svg>