<?xml version="1.0" encoding="UTF-8"?>
<svg width="36px" height="40px" viewBox="0 0 36 40" version="1.1" xmlns="http://www.w3.org/2000/svg" xmlns:xlink="http://www.w3.org/1999/xlink">
    <title>icon-mastercard</title>
    <g id="icon-mastercard" stroke="none" stroke-width="1" fill="none" fill-rule="evenodd">
        <g transform="translate(0.000000, 6.000000)" fill-rule="nonzero">
            <path d="M6.905,27.578 L6.905,25.778 C6.92622203,25.4717586 6.81464356,25.1711928 6.59873034,24.9529826 C6.38281712,24.7347724 6.08344887,24.6200197 5.777,24.638 C5.37315024,24.6115243 4.98689885,24.8069492 4.769,25.148 C4.57033877,24.8171178 4.2065835,24.6214267 3.821,24.638 C3.48527521,24.6210281 3.16566847,24.7831144 2.981,25.064 L2.981,24.71 L2.357,24.71 L2.357,27.578 L2.987,27.578 L2.987,26 C2.95986751,25.8014271 3.0227833,25.6011072 3.15857817,25.4537059 C3.29437305,25.3063046 3.48887276,25.2272077 3.689,25.238 C4.103,25.238 4.313,25.508 4.313,25.994 L4.313,27.59 L4.943,27.59 L4.943,26 C4.91698087,25.8016529 4.98028136,25.601982 5.11582447,25.454854 C5.25136758,25.3077261 5.44518893,25.2282988 5.645,25.238 C6.071,25.238 6.275,25.508 6.275,25.994 L6.275,27.59 L6.905,27.578 Z M16.226,24.71 L15.2,24.71 L15.2,23.84 L14.57,23.84 L14.57,24.71 L14,24.71 L14,25.28 L14.582,25.28 L14.582,26.6 C14.582,27.266 14.84,27.6620083 15.578,27.6620083 C15.8537176,27.6629262 16.1240923,27.5859734 16.358,27.44 L16.178,26.906 C16.010661,27.0058129 15.8207392,27.0615508 15.626,27.068 C15.326,27.068 15.212,26.876 15.212,26.588 L15.212,25.28 L16.232,25.28 L16.226,24.71 Z M21.548,24.638 C21.2380752,24.6288852 20.9479949,24.790041 20.792,25.058 L20.792,24.71 L20.174,24.71 L20.174,27.578 L20.798,27.578 L20.798,25.97 C20.798,25.496 21.002,25.232 21.398,25.232 C21.5314652,25.2301744 21.6639845,25.2546395 21.788,25.304 L21.98,24.704 C21.8374916,24.6530192 21.6873515,24.6266432 21.536,24.626 L21.548,24.638 Z M13.502,24.938 C13.1487875,24.7279931 12.742685,24.6238643 12.332,24.638 C11.606,24.638 11.132,24.986 11.132,25.556 C11.132,26.024 11.48,26.312 12.122,26.402 L12.422,26.444 C12.764,26.492 12.926,26.582 12.926,26.744 C12.926,26.966 12.698,27.092 12.272,27.092 C11.9293407,27.1019186 11.593311,26.9962489 11.318,26.792 L11.018,27.278 C11.3814842,27.5317972 11.8168465,27.6621956 12.26,27.65 C13.088,27.65 13.568,27.26 13.568,26.714 C13.568,26.168 13.19,25.946 12.566,25.856 L12.266,25.814 C11.996,25.778 11.78,25.724 11.78,25.532 C11.78,25.34 11.984,25.196 12.326,25.196 C12.6421027,25.199672 12.9519788,25.2843715 13.226,25.442 L13.502,24.938 Z M30.215,24.638 C29.9050752,24.6288852 29.6149949,24.790041 29.459,25.058 L29.459,24.71 L28.841,24.71 L28.841,27.578 L29.465,27.578 L29.465,25.97 C29.465,25.496 29.669,25.232 30.065,25.232 C30.1984652,25.2301744 30.3309845,25.2546395 30.455,25.304 L30.647,24.704 C30.5044916,24.6530192 30.3543515,24.6266432 30.203,24.626 L30.215,24.638 Z M22.175,26.138 C22.1599933,26.5455305 22.3174115,26.9405188 22.6086151,27.2260126 C22.8998188,27.5115064 23.2978466,27.6610729 23.705,27.638 C24.0796636,27.657062 24.4478702,27.53504 24.737,27.296 L24.437,26.792 C24.2212913,26.9564933 23.9582548,27.0469779 23.687,27.05 C23.2087102,27.011301 22.8402765,26.6118528 22.8402765,26.132 C22.8402765,25.6521472 23.2087102,25.252699 23.687,25.214 C23.9582548,25.2170221 24.2212913,25.3075067 24.437,25.472 L24.737,24.968 C24.4478702,24.72896 24.0796636,24.606938 23.705,24.626 C23.2978466,24.6029271 22.8998188,24.7524936 22.6086151,25.0379874 C22.3174115,25.3234812 22.1599933,25.7184695 22.175,26.126 L22.175,26.138 Z M28.019,26.138 L28.019,24.71 L27.395,24.71 L27.395,25.058 C27.180021,24.781385 26.8450929,24.6250852 26.495,24.638 C25.6665729,24.638 24.995,25.3095729 24.995,26.138 C24.995,26.9664271 25.6665729,27.638 26.495,27.638 C26.8450929,27.6509148 27.180021,27.494615 27.395,27.218 L27.395,27.566 L28.019,27.566 L28.019,26.138 Z M25.697,26.138 C25.7247485,25.6672006 26.1237326,25.3049325 26.5950172,25.3226218 C27.0663017,25.340311 27.4370067,25.7314686 27.4293848,26.2030235 C27.4217629,26.6745783 27.0386101,27.0535511 26.567,27.056 C26.3268617,27.0590385 26.0963673,26.9616434 25.9311687,26.7873303 C25.76597,26.6130173 25.6810818,26.3776294 25.697,26.138 L25.697,26.138 Z M18.167,24.638 C17.3385729,24.649598 16.676402,25.3305729 16.688,26.159 C16.699598,26.9874271 17.3805729,27.649598 18.209,27.638 C18.6406218,27.6601547 19.0650816,27.5211628 19.4,27.248 L19.1,26.786 C18.8631086,26.9759836 18.5696306,27.0815512 18.266,27.086 C17.8371099,27.122885 17.4567741,26.8117012 17.408,26.384 L19.538,26.384 L19.538,26.144 C19.538,25.244 18.98,24.644 18.176,24.644 L18.167,24.638 Z M18.167,25.196 C18.3555809,25.1919795 18.538031,25.2630589 18.6741917,25.3935932 C18.8103524,25.5241274 18.8890634,25.7034173 18.893,25.892 L17.393,25.892 C17.4155985,25.491447 17.7540435,25.1823162 18.155,25.196 L18.167,25.196 Z M33.8,26.144 L33.8,23.558 L33.2,23.558 L33.2,25.058 C32.985021,24.781385 32.6500929,24.6250852 32.3,24.638 C31.4715729,24.638 30.8,25.3095729 30.8,26.138 C30.8,26.9664271 31.4715729,27.638 32.3,27.638 C32.6500929,27.6509148 32.985021,27.494615 33.2,27.218 L33.2,27.566 L33.8,27.566 L33.8,26.144 Z M34.841,27.161 C34.8800039,27.1605221 34.9187266,27.1676553 34.955,27.182 C34.9894528,27.1960592 35.0209894,27.2164054 35.048,27.242 C35.0743608,27.2678664 35.0957188,27.2983779 35.111,27.332 C35.1417083,27.4028142 35.1417083,27.4831858 35.111,27.554 C35.0957188,27.5876221 35.0743608,27.6181336 35.048,27.644 C35.0209894,27.6695946 34.9894528,27.6899408 34.955,27.704 C34.9190847,27.7198476 34.8802563,27.728022 34.841,27.728 C34.7249149,27.727125 34.6197538,27.6593545 34.571,27.554 C34.5406472,27.4831125 34.5406472,27.4028875 34.571,27.332 C34.5862812,27.2983779 34.6076392,27.2678664 34.634,27.242 C34.6610106,27.2164054 34.6925472,27.1960592 34.727,27.182 C34.766075,27.1664565 34.8079813,27.1593018 34.85,27.161 L34.841,27.161 Z M34.841,27.668 C34.8709428,27.6681819 34.9005876,27.6620485 34.928,27.65 C34.9538109,27.6384763 34.9772193,27.6221922 34.997,27.602 C35.0747891,27.5171279 35.0747891,27.3868721 34.997,27.302 C34.9772664,27.2817521 34.9538467,27.2654602 34.928,27.254 C34.9005605,27.2420364 34.870934,27.2359068 34.841,27.235999 C34.8110919,27.2361581 34.7815154,27.2422773 34.754,27.254 C34.7270464,27.265052 34.7025686,27.2813705 34.682,27.302 C34.6042109,27.3868721 34.6042109,27.5171279 34.682,27.602 C34.7026192,27.6225679 34.7270838,27.6388776 34.754,27.65 C34.7842669,27.6630524 34.8170605,27.6692012 34.85,27.668 L34.841,27.668 Z M34.859,27.311 C34.8870054,27.3096419 34.9146023,27.3181332 34.937,27.335 C34.9556307,27.3504188 34.9656834,27.3738751 34.964,27.398 C34.9648709,27.4181466 34.9572532,27.437735 34.943,27.452 C34.9256114,27.4677938 34.903429,27.4773005 34.88,27.479 L34.967,27.578 L34.898,27.578 L34.817,27.479 L34.79,27.479 L34.79,27.578 L34.733,27.578 L34.733,27.314 L34.859,27.311 Z M34.793,27.362 L34.793,27.434 L34.859,27.434 C34.8707446,27.4375016 34.8832554,27.4375016 34.895,27.434 C34.8992789,27.4255086 34.8992789,27.4154914 34.895,27.407 C34.8992789,27.3985086 34.8992789,27.3884914 34.895,27.38 C34.8832554,27.3764984 34.8707446,27.3764984 34.859,27.38 L34.793,27.362 Z M31.493,26.144 C31.5207485,25.6732006 31.9197326,25.3109325 32.3910172,25.3286218 C32.8623017,25.346311 33.2330067,25.7374686 33.2253848,26.2090235 C33.2177629,26.6805783 32.8346101,27.0595511 32.363,27.062 C32.1228617,27.0650385 31.8923673,26.9676434 31.7271687,26.7933303 C31.56197,26.6190173 31.4770818,26.3836294 31.493,26.144 L31.493,26.144 Z M10.424,26.144 L10.424,24.71 L9.8,24.71 L9.8,25.058 C9.585021,24.781385 9.25009289,24.6250852 8.9,24.638 C8.07157288,24.638 7.4,25.3095729 7.4,26.138 C7.4,26.9664271 8.07157288,27.638 8.9,27.638 C9.25009289,27.6509148 9.585021,27.494615 9.8,27.218 L9.8,27.566 L10.424,27.566 L10.424,26.144 Z M8.102,26.144 C8.1297485,25.6732006 8.52873257,25.3109325 9.00001716,25.3286218 C9.47130174,25.346311 9.84200667,25.7374686 9.83438478,26.2090235 C9.82676289,26.6805783 9.44361009,27.0595511 8.972,27.062 C8.73082685,27.0667347 8.49872777,26.9700821 8.3321986,26.7955687 C8.16566944,26.6210552 8.07998429,26.3846873 8.096,26.144 L8.102,26.144 Z" id="Shape" fill="#231F20"></path>
            <polygon id="Path" fill="#FF5F00" points="13.295 2.855 22.745 2.855 22.745 19.838 13.295 19.838"></polygon>
            <path d="M13.895,11.348 C13.8914668,8.03344768 15.4126531,4.90146328 18.02,2.855 C13.5919371,-0.624984465 7.23306119,-0.118094634 3.41221937,4.01944094 C-0.408622459,8.15697652 -0.408622459,14.5360235 3.41221937,18.6735591 C7.23306119,22.8110946 13.5919371,23.3179845 18.02,19.838 C15.4134826,17.7921864 13.8923892,14.6614996 13.895,11.348 L13.895,11.348 Z" id="Path" fill="#EB001B"></path>
            <path d="M35.495,11.348 C35.495,15.4830141 33.1338263,19.2549951 29.4145266,21.0619682 C25.6952269,22.8689412 21.2706769,22.3936684 18.02,19.838 C20.6253801,17.7904495 22.146588,14.660179 22.146588,11.3465 C22.146588,8.03282105 20.6253801,4.90255045 18.02,2.855 C21.2706769,0.299331552 25.6952269,-0.175941227 29.4145266,1.63103184 C33.1338263,3.4380049 35.495,7.20998589 35.495,11.345 L35.495,11.348 Z M34.463,18.038 L34.463,17.69 L34.604,17.69 L34.604,17.618 L34.247,17.618 L34.247,17.69 L34.4,17.69 L34.4,18.038 L34.463,18.038 Z M35.156,18.038 L35.156,17.618 L35.048,17.618 L34.922,17.918 L34.796,17.618 L34.7,17.618 L34.7,18.038 L34.778,18.038 L34.778,17.723 L34.895,17.996 L34.976,17.996 L35.093,17.723 L35.093,18.041 L35.156,18.038 Z" id="Shape" fill="#F79E1B"></path>
        </g>
    </g>
</svg>