<?xml version="1.0" encoding="UTF-8"?>
<svg width="81px" height="40px" viewBox="0 0 81 40" version="1.1" xmlns="http://www.w3.org/2000/svg" xmlns:xlink="http://www.w3.org/1999/xlink">
    <title>Icon-ecocheques</title>
    <g id="Icon-ecocheques" stroke="none" stroke-width="1" fill="none" fill-rule="evenodd">
        <g id="icon-ecocheques" transform="translate(0.000000, 10.500000)" fill-rule="nonzero">
            <path d="M23.4263736,10.2986264 L23.4263736,10.9771978 C23.4263736,12.3239011 23.656044,12.7414835 24.4024725,12.7414835 C24.8513736,12.7414835 25.1436813,12.5326923 25.268956,12.0994505 C25.3211538,11.9271978 25.3368132,11.7862637 25.3368132,11.2486264 L26.7774725,11.2486264 C26.7565934,12.2925824 26.7096154,12.6423077 26.4799451,13.0233516 C26.1145604,13.7019231 25.3837912,14.0673077 24.4076923,14.0673077 C23.5203297,14.0673077 22.8626374,13.7906593 22.4763736,13.2634615 C22.1318681,12.7832418 21.9909341,12.2195055 21.9909341,11.1755495 L21.9909341,8.87884615 C21.9909341,7.66263736 22.1318681,7.15631868 22.6173077,6.68653846 C23.0348901,6.28461538 23.6351648,6.06016484 24.3607143,6.06016484 C25.1436813,6.06016484 25.7700549,6.31071429 26.171978,6.77527473 C26.6052198,7.27115385 26.7618132,7.81923077 26.7618132,9.03543956 L26.7618132,10.3038462 L23.4211538,10.3038462 L23.4263736,10.2986264 Z M25.3054945,8.61263736 C25.3054945,7.69917582 25.0340659,7.32857143 24.3659341,7.32857143 C23.6978022,7.32857143 23.4263736,7.69395604 23.4263736,8.61263736 L23.4263736,9.03021978 L25.3054945,9.03021978 L25.3054945,8.61263736 Z M31.3291209,8.87362637 L31.3291209,8.67527473 C31.3291209,7.77747253 31.0368132,7.37032967 30.4,7.37032967 C29.6587912,7.37032967 29.4239011,7.78791209 29.4239011,9.14505495 L29.4239011,10.9980769 C29.4239011,11.7288462 29.4760989,12.0629121 29.6118132,12.3291209 C29.7475275,12.5953297 30.0450549,12.7467033 30.3947802,12.7467033 C31.0368132,12.7467033 31.3343407,12.3291209 31.3343407,11.4 L31.3343407,11.1912088 L32.7697802,11.1912088 L32.7697802,11.4782967 C32.7697802,12.3865385 32.6131868,12.9293956 32.2269231,13.3417582 C31.8093407,13.8115385 31.182967,14.0516484 30.4,14.0516484 C29.5335165,14.0516484 28.8549451,13.775 28.4686813,13.2478022 C28.1137363,12.7623626 27.9884615,12.2247253 27.9884615,11.1703297 L27.9884615,8.94148352 C27.9884615,7.88708791 28.1137363,7.33379121 28.4686813,6.85357143 C28.8549451,6.33159341 29.5126374,6.04972527 30.4,6.04972527 C31.182967,6.04972527 31.8093407,6.28983516 32.2269231,6.74917582 C32.6131868,7.16675824 32.7697802,7.68873626 32.7697802,8.59175824 L32.7697802,8.86840659 L31.3291209,8.86840659 L31.3291209,8.87362637 Z M38.6107143,11.2434066 C38.6107143,12.443956 38.4697802,12.9763736 38.0052198,13.4357143 C37.5876374,13.8428571 36.9873626,14.0620879 36.2618132,14.0620879 C35.5206044,14.0620879 34.9151099,13.8428571 34.4975275,13.4357143 C34.0486264,12.9763736 33.892033,12.443956 33.892033,11.2434066 L33.892033,8.87362637 C33.892033,7.67307692 34.0486264,7.1510989 34.4975275,6.68131868 C34.9151099,6.2793956 35.5206044,6.05494505 36.2618132,6.05494505 C36.9925824,6.05494505 37.5928571,6.2793956 38.0104396,6.68131868 C38.4802198,7.1510989 38.6211538,7.67307692 38.6211538,8.87362637 L38.6211538,11.2434066 L38.6107143,11.2434066 Z M35.3326923,11.3373626 C35.3326923,12.3134615 35.6041209,12.7467033 36.2409341,12.7467033 C36.8934066,12.7467033 37.1700549,12.3134615 37.1700549,11.3373626 L37.1700549,8.77967033 C37.1700549,7.78791209 36.8934066,7.37032967 36.2409341,7.37032967 C35.6041209,7.37032967 35.3274725,7.80879121 35.3274725,8.77967033 L35.3274725,11.3373626 L35.3326923,11.3373626 Z" id="Shape" fill="#39B54A"></path>
            <path d="M43.1675824,8.87362637 L43.1675824,8.67527473 C43.1675824,7.77747253 42.8804945,7.37032967 42.2436813,7.37032967 C41.5024725,7.37032967 41.2675824,7.78791209 41.2675824,9.14505495 L41.2675824,10.9980769 C41.2675824,11.7288462 41.3197802,12.0629121 41.4502747,12.3291209 C41.5807692,12.5953297 41.8887363,12.7467033 42.2436813,12.7467033 C42.8804945,12.7467033 43.1728022,12.3291209 43.1728022,11.4 L43.1728022,11.1912088 L44.6134615,11.1912088 L44.6134615,11.4782967 C44.6134615,12.3865385 44.4568681,12.9293956 44.0706044,13.3417582 C43.653022,13.8115385 43.0266484,14.0516484 42.2436813,14.0516484 C41.3771978,14.0516484 40.6986264,13.775 40.3123626,13.2478022 C39.946978,12.7623626 39.8269231,12.2247253 39.8269231,11.1703297 L39.8269231,8.94148352 C39.8269231,7.88708791 39.946978,7.33379121 40.2967033,6.85357143 C40.6881868,6.33159341 41.3563187,6.04972527 42.2384615,6.04972527 C43.0214286,6.04972527 43.6478022,6.28983516 44.0653846,6.74917582 C44.4516484,7.16675824 44.6082418,7.68873626 44.6082418,8.59175824 L44.6082418,8.86840659 L43.1675824,8.86840659 L43.1675824,8.87362637 Z M47.2024725,7.2032967 C47.8706044,6.43076923 48.4395604,6.10714286 49.1233516,6.10714286 C49.9793956,6.10714286 50.3760989,6.68131868 50.3760989,7.90274725 L50.3760989,13.9054945 L48.9406593,13.9054945 L48.9406593,8.26813187 C48.9406593,7.58956044 48.7997253,7.38076923 48.3821429,7.38076923 C47.9958791,7.38076923 47.5626374,7.6521978 47.2076923,8.14807692 L47.2076923,13.9107143 L45.767033,13.9107143 L45.767033,3.58598901 L47.2076923,3.58598901 L47.2076923,7.2032967 L47.2024725,7.2032967 Z M53.0851648,10.2986264 L53.0851648,10.9771978 C53.0851648,12.3239011 53.3148352,12.7414835 54.0612637,12.7414835 C54.5101648,12.7414835 54.8024725,12.5326923 54.9277473,12.0994505 C54.9799451,11.9271978 54.9903846,11.7862637 54.9903846,11.2486264 L56.431044,11.2486264 C56.4206044,12.2925824 56.3788462,12.6423077 56.143956,13.0233516 C55.7785714,13.7019231 55.0478022,14.0673077 54.0717033,14.0673077 C53.1843407,14.0673077 52.5266484,13.7906593 52.1403846,13.2634615 C51.8010989,12.7832418 51.6601648,12.2195055 51.6601648,11.1755495 L51.6601648,8.87884615 C51.6601648,7.66263736 51.8010989,7.15631868 52.2865385,6.68653846 C52.7041209,6.28461538 53.3043956,6.06016484 54.0299451,6.06016484 C54.8129121,6.06016484 55.4392857,6.31071429 55.8412088,6.77527473 C56.2744505,7.27115385 56.431044,7.81923077 56.431044,9.03543956 L56.431044,10.3038462 L53.0903846,10.3038462 L53.0851648,10.2986264 Z M54.9747253,8.61263736 C54.9747253,7.69917582 54.6980769,7.32857143 54.0351648,7.32857143 C53.3565934,7.32857143 53.0851648,7.69395604 53.0851648,8.61263736 L53.0851648,9.03021978 L54.9747253,9.03021978 L54.9747253,8.61263736 Z M62.3346154,16.5362637 L60.893956,16.5362637 L60.893956,13.1434066 C60.2571429,13.7541209 59.7456044,14.0151099 59.1923077,14.0151099 C58.6337912,14.0151099 58.2005495,13.7384615 57.9552198,13.2321429 C57.7255495,12.6997253 57.642033,12.1568681 57.642033,10.9876374 L57.642033,9.13461538 C57.642033,7.96538462 57.7255495,7.42252747 57.9552198,6.89010989 C58.2005495,6.38379121 58.6337912,6.10714286 59.1923077,6.10714286 C59.7508242,6.10714286 60.2623626,6.36813187 60.893956,6.97362637 L60.893956,6.21153846 L62.3346154,6.21153846 L62.3346154,16.5467033 L62.3346154,16.5362637 Z M60.893956,7.76703297 C60.5285714,7.50604396 60.2153846,7.37554945 59.8865385,7.37554945 C59.5733516,7.37554945 59.328022,7.53214286 59.2184066,7.77747253 C59.0931319,8.03846154 59.0774725,8.24725275 59.0774725,9.04587912 L59.0774725,11.0659341 C59.0774725,11.875 59.0931319,12.0785714 59.2184066,12.3395604 C59.3228022,12.5848901 59.5837912,12.7414835 59.8865385,12.7414835 C60.2101648,12.7414835 60.5129121,12.6370879 60.893956,12.3604396 L60.893956,7.76703297 L60.893956,7.76703297 Z M68.2747253,13.9054945 L66.8392857,13.9054945 L66.8392857,12.9137363 C66.1763736,13.6862637 65.6021978,14.0098901 64.9236264,14.0098901 C64.0728022,14.0098901 63.6708791,13.4357143 63.6708791,12.2142857 L63.6708791,6.21153846 L65.1115385,6.21153846 L65.1115385,11.8489011 C65.1115385,12.5274725 65.2524725,12.7467033 65.6700549,12.7467033 C66.0615385,12.7467033 66.4947802,12.4700549 66.8497253,11.9741758 L66.8497253,6.21153846 L68.2903846,6.21153846 L68.2903846,13.9054945 L68.2747253,13.9054945 Z M70.989011,10.2986264 L70.989011,10.9771978 C70.989011,12.3239011 71.2239011,12.7414835 71.9703297,12.7414835 C72.4192308,12.7414835 72.7115385,12.5326923 72.8368132,12.0994505 C72.889011,11.9271978 72.8994505,11.7862637 72.8994505,11.2486264 L74.3401099,11.2486264 C74.3244505,12.2925824 74.2774725,12.6423077 74.0478022,13.0233516 C73.6824176,13.7019231 72.9516484,14.0673077 71.9755495,14.0673077 C71.0881868,14.0673077 70.4252747,13.7906593 70.0442308,13.2634615 C69.6997253,12.7832418 69.5587912,12.2195055 69.5587912,11.1755495 L69.5587912,8.87884615 C69.5587912,7.66263736 69.6997253,7.15631868 70.1851648,6.68653846 C70.6027473,6.28461538 71.203022,6.06016484 71.9285714,6.06016484 C72.721978,6.06016484 73.3379121,6.31071429 73.7450549,6.77527473 C74.1782967,7.27115385 74.3348901,7.81923077 74.3348901,9.03543956 L74.3348901,10.3038462 L70.9942308,10.3038462 L70.989011,10.2986264 Z M72.8785714,8.61263736 C72.8785714,7.69917582 72.6019231,7.32857143 71.939011,7.32857143 C71.2604396,7.32857143 70.989011,7.69395604 70.989011,8.61263736 L70.989011,9.03021978 L72.8785714,9.03021978 L72.8785714,8.61263736 Z M78.9335165,8.48736264 C78.6412088,7.68351648 78.2967033,7.37554945 77.7434066,7.37554945 C77.2945055,7.37554945 76.9865385,7.6521978 76.9865385,8.05412088 C76.9865385,8.4717033 77.1953297,8.69093407 78.281044,9.27554945 C79.1475275,9.75576923 79.5337912,10.0063187 79.846978,10.3299451 C80.181044,10.6796703 80.3846154,11.2068681 80.3846154,11.781044 C80.3846154,13.1381868 79.4450549,14.0568681 78.0252747,14.0568681 C76.7098901,14.0568681 75.8851648,13.3782967 75.3945055,11.8906593 L76.7412088,11.4208791 C77.0543956,12.3604396 77.4197802,12.7362637 78.0252747,12.7362637 C78.5054945,12.7362637 78.8447802,12.4126374 78.8447802,11.9637363 C78.8447802,11.5304945 78.5994505,11.2538462 77.7642857,10.8049451 C76.7098901,10.2151099 76.4175824,10.021978 76.0782967,9.65659341 C75.7233516,9.29120879 75.5197802,8.76923077 75.5197802,8.20549451 C75.5197802,6.95274725 76.4593407,6.05494505 77.7642857,6.05494505 C78.9857143,6.05494505 79.7739011,6.64478022 80.2541209,7.91318681 L78.9335165,8.47692308 L78.9335165,8.48736264 Z" id="Shape" fill="#333333"></path>
            <path d="M9.47912088,0 C4.24368132,0 0,4.24368132 0,9.47912088 C0,12.1151099 1.08049451,14.5005495 2.81868132,16.2126374 C3.23626374,15.4192308 3.81043956,14.4065934 4.36373626,13.6027473 C0.981318681,7.33901099 8.91538462,1.40934066 14.4692308,5.18324176 C14.1873626,5.64258242 12.8771978,7.18241758 13.4931319,9.95412088 C14.3178571,13.6601648 10.4134615,16.1134615 7.53214286,15.0277473 C7.53214286,15.0277473 8.87884615,10.1368132 12.2821429,6.6239011 C7.53214286,10.1211538 5.35027473,15.5497253 4.66126374,17.621978 C6.0706044,18.4571429 7.71483516,18.953022 9.47912088,18.953022 C14.7145604,18.953022 18.9582418,14.7093407 18.9582418,9.4739011 C18.9582418,4.23846154 14.7197802,0 9.47912088,0 Z" id="Path" fill="#39B54A"></path>
        </g>
    </g>
</svg>