<?xml version="1.0" encoding="UTF-8"?>
<svg width="38px" height="40px" viewBox="0 0 38 40" version="1.1" xmlns="http://www.w3.org/2000/svg" xmlns:xlink="http://www.w3.org/1999/xlink">
    <title>Icon-applepay</title>
    <g id="Icon-applepay" stroke="none" stroke-width="1" fill="none" fill-rule="evenodd">
        <g id="icon-applepay" transform="translate(0.000000, 8.000000)" fill-rule="nonzero">
            <path d="M34.1203019,0 L3.35615094,0 C3.228,0 3.09962264,0 2.97169811,0.000679245283 C2.86369811,0.00158490566 2.75592453,0.00271698113 2.64792453,0.00566037736 C2.41267925,0.012 2.17539623,0.0260377358 1.94309434,0.0676981132 C1.71012438,0.107612694 1.4844012,0.18201435 1.27335849,0.28845283 C0.849093822,0.504244247 0.504244247,0.849093822 0.28845283,1.27335849 C0.181824271,1.48448188 0.107414161,1.71038334 0.0676981132,1.94354717 C0.0255849057,2.17607547 0.0117735849,2.41313208 0.00543396226,2.64815094 C0.00249056604,2.75615094 0.00113207547,2.86392453 0.000452830189,2.97192453 C0,3.09962264 0,3.22777358 0,3.35615094 L0,20.6356981 C0,20.7640755 0,20.892 0.000452830189,21.0203774 C0.00113207547,21.1281509 0.00249056604,21.2361509 0.00543396226,21.3441509 C0.0117735849,21.578717 0.0258113208,21.816 0.0676981132,22.0483019 C0.107332649,22.281456 0.181666752,22.5073584 0.288226415,22.7184906 C0.395362468,22.9293542 0.535206706,23.1219266 0.702566038,23.2890566 C0.869638865,23.4564829 1.06222252,23.5963353 1.27313208,23.7033962 C1.48754717,23.8127547 1.70716981,23.8822642 1.94332075,23.9246038 C2.17539623,23.9660377 2.41267925,23.9800755 2.64792453,23.9864151 C2.75592453,23.9889057 2.86369811,23.9904906 2.97169811,23.9909434 C3.09962264,23.9918491 3.228,23.9918491 3.35615094,23.9918491 L34.1203019,23.9918491 C34.2482264,23.9918491 34.3766038,23.9918491 34.5045283,23.9909434 C34.6125397,23.9904035 34.720544,23.9888941 34.8285283,23.9864151 C35.0633208,23.9800755 35.3006038,23.9660377 35.5333585,23.9246038 C35.7663789,23.8846513 35.9921185,23.8100916 36.2030943,23.7033962 C36.6271459,23.4873114 36.9719152,23.1425422 37.188,22.7184906 C37.2973585,22.5040755 37.3666415,22.2844528 37.4085283,22.0483019 C37.4506415,21.816 37.4642264,21.578717 37.470566,21.3441509 C37.4735094,21.2361509 37.4750943,21.1281509 37.4755472,21.0203774 C37.4764528,20.892 37.4764528,20.7640755 37.4764528,20.6356981 L37.4764528,3.35637736 C37.4764528,3.228 37.4764528,3.09984906 37.4755472,2.97169811 C37.4751089,2.8638337 37.4734484,2.75597772 37.470566,2.64815094 C37.4642264,2.41313208 37.4506415,2.17607547 37.4085283,1.94354717 C37.3690938,1.71034346 37.2947501,1.48441172 37.188,1.27335849 C36.9720936,0.849177317 36.6272755,0.504359237 36.2030943,0.28845283 C35.9920261,0.182123882 35.7663082,0.107800268 35.5333585,0.0679245283 C35.3006038,0.0260377358 35.0633208,0.0122264151 34.8285283,0.00588679245 C34.7205477,0.00314422985 34.6125422,0.00148376913 34.5045283,0.000905660377 C34.3766038,0 34.2482264,0 34.1203019,0 Z" id="Path" fill="#000000"></path>
            <path d="M34.1203019,0.799698113 L34.4988679,0.800377358 C34.6012075,0.801056604 34.7037736,0.802188679 34.8067925,0.80490566 C34.9861132,0.809886792 35.196,0.819622642 35.3916226,0.854716981 C35.561434,0.885283019 35.7040755,0.931698113 35.8408302,1.00143396 C36.1145085,1.1405794 36.3368454,1.36315422 36.4756981,1.63698113 C36.5449811,1.77283019 36.5911698,1.91456604 36.6217358,2.08596226 C36.6566038,2.27932075 36.6663396,2.48966038 36.6710943,2.67011321 C36.6740377,2.772 36.6753962,2.87388679 36.6756226,2.97803774 C36.6767547,3.10415094 36.6767547,3.23003774 36.6767547,3.35637736 L36.6767547,20.6359245 C36.6767547,20.7622642 36.6767547,20.8881509 36.6758491,21.0167547 C36.6753962,21.1186415 36.6740377,21.2205283 36.6713208,21.3224151 C36.6663396,21.5026415 36.6566038,21.7129811 36.621283,21.9086038 C36.5956062,22.0642145 36.5463615,22.2150026 36.4752453,22.3557736 C36.3360926,22.6296924 36.1134401,22.8522657 35.8394717,22.9913208 C35.7036226,23.0606038 35.561434,23.1072453 35.3932075,23.1373585 C35.1935094,23.1729057 34.9750189,23.1826415 34.8104151,23.1871698 C34.7069434,23.189434 34.6039245,23.1910189 34.4981887,23.1914717 C34.3725283,23.1923774 34.2461887,23.1923774 34.1203019,23.1923774 L3.35116981,23.1923774 C3.22664151,23.1923774 3.10211321,23.1923774 2.97532075,23.1914717 C2.87342381,23.1910293 2.7715329,23.1896707 2.66966038,23.1873962 C2.50120755,23.1828679 2.28249057,23.1729057 2.08460377,23.1375849 C1.9281465,23.1115114 1.77654052,23.0618921 1.6349434,22.9904151 C1.49912093,22.9214197 1.37515327,22.8312337 1.26769811,22.7232453 C1.15990383,22.6156431 1.06987747,22.4916085 1.00098113,22.3557736 C0.929751162,22.2142129 0.880361424,22.0626849 0.854490566,21.9063396 C0.819396226,21.7109434 0.809660377,21.5015094 0.804679245,21.3226415 C0.802120222,21.2203955 0.800610709,21.118126 0.800150943,21.0158491 L0.799698113,20.7153962 L0.799698113,3.27713208 L0.800150943,2.97713208 C0.800830189,2.87456604 0.801962264,2.77222642 0.804679245,2.66988679 C0.809660377,2.49056604 0.819396226,2.28113208 0.854943396,2.08415094 C0.880793937,1.92811948 0.930106903,1.77689814 1.00120755,1.63562264 C1.07003774,1.50022642 1.15969811,1.37660377 1.26837736,1.26837736 C1.37608952,1.16049007 1.50018896,1.07031929 1.63607547,1.00120755 C1.7773149,0.930165491 1.928441,0.880782366 2.08437736,0.854716981 C2.28022642,0.819622642 2.49011321,0.809886792 2.66988679,0.80490566 C2.77222642,0.802188679 2.87479245,0.801056604 2.97645283,0.800377358 L3.35615094,0.799698113 L34.1203019,0.799698113" id="Path" fill="#FFFFFF"></path>
            <path d="M10.2307925,8.06943396 C10.5516226,7.66822642 10.7696604,7.12935849 10.7121509,6.57849057 C10.2423396,6.60203774 9.6690566,6.88867925 9.33713208,7.29011321 C9.03916981,7.63426415 8.77562264,8.19577358 8.84422642,8.72332075 C9.37177358,8.7690566 9.89841509,8.45954717 10.2307925,8.06966038 M10.7060377,8.82633962 C9.94030189,8.78060377 9.28913208,9.26083019 8.9234717,9.26083019 C8.55758491,9.26083019 7.99743396,8.84920755 7.392,8.86030189 C6.60362264,8.87184906 5.87207547,9.31766038 5.472,10.0263396 C4.64920755,11.4446038 5.25486792,13.5484528 6.05501887,14.7033962 C6.44377358,15.2748679 6.912,15.9040755 7.52898113,15.881434 C8.112,15.858566 8.34045283,15.5037736 9.04913208,15.5037736 C9.75735849,15.5037736 9.96316981,15.881434 10.5803774,15.8698868 C11.2204528,15.858566 11.6205283,15.2981887 12.0090566,14.7262642 C12.4548679,14.0748679 12.6373585,13.4458868 12.6486792,13.4112453 C12.6373585,13.3999245 11.414717,12.9307925 11.4033962,11.5245283 C11.3918491,10.3469434 12.3633962,9.78679245 12.4089057,9.75215094 C11.8603019,8.94067925 11.0030943,8.84920755 10.7062642,8.82611321 M17.3737358,7.23260377 C19.0378868,7.23260377 20.1971321,8.37984906 20.1971321,10.0501132 C20.1971321,11.7264906 19.0141132,12.8796226 17.3320755,12.8796226 L15.4890566,12.8796226 L15.4890566,15.8101132 L14.1577358,15.8101132 L14.1577358,7.23260377 L17.3737358,7.23260377 Z M15.4890566,11.7620377 L17.0166792,11.7620377 C18.1759245,11.7620377 18.8356981,11.1380377 18.8356981,10.0562264 C18.8356981,8.97441509 18.1759245,8.35607547 17.022566,8.35607547 L15.4890566,8.35607547 L15.4890566,11.7622642 L15.4890566,11.7620377 Z M20.5449057,14.0329811 C20.5449057,12.9391698 21.3830943,12.2673962 22.869283,12.1840755 L24.5809811,12.0830943 L24.5809811,11.6017358 C24.5809811,10.9061887 24.1113962,10.4900377 23.3268679,10.4900377 C22.5837736,10.4900377 22.1200755,10.8466415 22.0073208,11.405434 L20.7946415,11.405434 C20.8659623,10.2760755 21.8289057,9.44377358 23.3744151,9.44377358 C24.8902642,9.44377358 25.8590943,10.2464151 25.8590943,11.5005283 L25.8590943,15.8101132 L24.6285283,15.8101132 L24.6285283,14.7817358 L24.5990943,14.7817358 C24.2363774,15.477283 23.4457358,15.9172075 22.625434,15.9172075 C21.4009811,15.9172075 20.5449057,15.1564528 20.5449057,14.0329811 L20.5449057,14.0329811 Z M24.5809811,13.4683019 L24.5809811,12.974717 L23.0413585,13.0698113 C22.274717,13.1234717 21.8406792,13.4621887 21.8406792,13.9972075 C21.8406792,14.544 22.2926038,14.9006038 22.9820377,14.9006038 C23.8795472,14.9006038 24.5809811,14.2824906 24.5809811,13.4683019 L24.5809811,13.4683019 Z M27.0208302,18.110717 L27.0208302,17.0703396 C27.1156981,17.0941132 27.3296604,17.0941132 27.4367547,17.0941132 C28.0310943,17.0941132 28.3521509,16.8446038 28.5482264,16.2024906 C28.5482264,16.190717 28.661434,15.8221132 28.661434,15.8162264 L26.4024906,9.55675472 L27.7933585,9.55675472 L29.3746415,14.6452075 L29.3981887,14.6452075 L30.9796981,9.55675472 L32.3347925,9.55675472 L29.9927547,16.1370566 C29.4579623,17.6529057 28.8396226,18.1403774 27.5438491,18.1403774 C27.4367547,18.1403774 27.1156981,18.1283774 27.0208302,18.110717 L27.0208302,18.110717 Z" id="Shape" fill="#000000"></path>
        </g>
    </g>
</svg>