<?xml version="1.0" encoding="UTF-8"?>
<svg width="48px" height="40px" viewBox="0 0 48 40" version="1.1" xmlns="http://www.w3.org/2000/svg" xmlns:xlink="http://www.w3.org/1999/xlink">
    <title>icon-visa</title>
    <g id="icon-visa" stroke="none" stroke-width="1" fill="none" fill-rule="evenodd">
        <g transform="translate(0.000000, 12.500000)" fill-rule="nonzero">
            <path d="M16.9166667,14.25 L19.3333333,0.25 L23.0833333,0.25 L20.75,14.25 L16.9166667,14.25 L16.9166667,14.25 Z M34.5833333,0.583333333 C33.8333333,0.333333333 32.6666667,0 31.1666667,0 C27.4166667,0 24.75,1.91666667 24.75,4.58333333 C24.75,6.58333333 26.6666667,7.75 28.0833333,8.41666667 C29.5833333,9.08333333 30.0833333,9.5 30.0833333,10.1666667 C30.0833333,11.0833333 28.9166667,11.5 27.8333333,11.5 C26.3333333,11.5 25.5,11.25 24.25,10.75 L23.75,10.5 L23.25,13.6666667 C24.1666667,14.0833333 25.75,14.4166667 27.5,14.4166667 C31.5,14.4166667 34.0833333,12.5833333 34.1666667,9.66666667 C34.1666667,8.08333333 33.1666667,6.83333333 31,5.83333333 C29.6666667,5.16666667 28.8333333,4.75 28.8333333,4.08333333 C28.8333333,3.5 29.5,2.91666667 31,2.91666667 C32.25,2.91666667 33.1666667,3.16666667 33.8333333,3.41666667 L34.1666667,3.58333333 L34.5833333,0.583333333 L34.5833333,0.583333333 Z M44.3333333,0.25 L41.4166667,0.25 C40.5,0.25 39.8333333,0.5 39.4166667,1.41666667 L33.75,14.25 L37.75,14.25 C37.75,14.25 38.4166667,12.5 38.5833333,12.1666667 L43.5,12.1666667 C43.5833333,12.6666667 44,14.25 44,14.25 L47.5,14.25 L44.3333333,0.25 L44.3333333,0.25 Z M39.5833333,9.25 C39.9166667,8.41666667 41.0833333,5.33333333 41.0833333,5.33333333 C41.0833333,5.33333333 41.4166667,4.5 41.5833333,4 L41.8333333,5.16666667 C41.8333333,5.16666667 42.5833333,8.5 42.75,9.16666667 L39.5833333,9.16666667 L39.5833333,9.25 L39.5833333,9.25 Z M13.75,0.25 L10,9.75 L9.58333333,7.83333333 C8.91666667,5.58333333 6.75,3.16666667 4.33333333,2 L7.75,14.25 L11.75,14.25 L17.75,0.333333333 L13.75,0.333333333 L13.75,0.25 Z" id="Shape" fill="#0058A0"></path>
            <path d="M6.58333333,0.25 L0.416666667,0.25 L0.333333333,0.583333333 C5.08333333,1.75 8.25,4.5 9.58333333,7.91666667 L8.25,1.5 C8.08333333,0.583333333 7.41666667,0.25 6.58333333,0.25 Z" id="Path" fill="#FAA61A"></path>
        </g>
    </g>
</svg>