<?xml version="1.0" encoding="UTF-8"?>
<svg width="29px" height="40px" viewBox="0 0 29 40" version="1.1" xmlns="http://www.w3.org/2000/svg" xmlns:xlink="http://www.w3.org/1999/xlink">
    <title>Icon-postnl</title>
    <defs>
        <path d="M3.5,1 C1.3,2.2 0,8.4 0,13.2 C0,18.1 1.2,24.2 3.5,25.4 C5.6,26.6 11.3,24.8 16.7,21.9 C21.3,19.4 25.5,15.6 25.5,13.2 C25.5,10.9 21.2,7 16.7,4.5 C12.5,2.2 7.9,0.7 5.2,0.7 C4.5,0.7 3.9,0.8 3.5,1" id="path-1"></path>
        <radialGradient cx="23.719%" cy="36.526%" fx="23.719%" fy="36.526%" r="98%" gradientTransform="translate(0.237190,0.365260),scale(1.000000,0.984556),translate(-0.237190,-0.365260)" id="radialGradient-3">
            <stop stop-color="#FFC52A" offset="0%"></stop>
            <stop stop-color="#F37023" offset="100%"></stop>
        </radialGradient>
        <polygon id="path-4" points="0.1 0.7 27.4 0.7 27.4 27.7 0.1 27.7"></polygon>
        <polygon id="path-6" points="0.1 0.7 27.4 0.7 27.4 27.7 0.1 27.7"></polygon>
        <polygon id="path-8" points="0.1 0.7 27.4 0.7 27.4 27.7 0.1 27.7"></polygon>
        <polygon id="path-10" points="0.1 0.7 27.4 0.7 27.4 27.7 0.1 27.7"></polygon>
        <polygon id="path-12" points="0.1 0.7 27.4 0.7 27.4 27.7 0.1 27.7"></polygon>
        <polygon id="path-14" points="0.1 0.7 27.4 0.7 27.4 27.7 0.1 27.7"></polygon>
        <polygon id="path-16" points="0.1 0.7 27.4 0.7 27.4 27.7 0.1 27.7"></polygon>
    </defs>
    <g id="Icon-postnl" stroke="none" stroke-width="1" fill="none" fill-rule="evenodd">
        <g id="icon-postnl" transform="translate(1.225586, 6.000000)">
            <g id="Clipped" fill="#A6ACB2" fill-rule="nonzero">
                <path d="M6.1,0.7 C9.4,0.7 14.6,2.8 18.1,4.7 C22,6.8 27.4,11.2 27.4,14.2 C27.4,17.4 21.8,21.6 18.1,23.7 C14.7,25.6 9.6,27.8 6.2,27.8 C5.3,27.8 4.6,27.6 4,27.3 C1.3,25.8 0.1,19.5 0.1,14.3 C0.1,11.7 0.4,8.8 1,6.5 C1.7,3.7 2.7,1.9 4,1.2 C4.5,0.8 5.2,0.7 6.1,0.7" id="Path"></path>
            </g>
            <g id="Clipped" transform="translate(1.000000, 1.000000)">
                <mask id="mask-2" fill="white">
                    <use xlink:href="#path-1"></use>
                </mask>
                <g id="Q"></g>
                <polyline id="Path" fill="url(#radialGradient-3)" fill-rule="nonzero" mask="url(#mask-2)" points="0 0.7 25.5 0.7 25.5 26.6 0 26.6"></polyline>
            </g>
            <g id="Clipped">
                <mask id="mask-5" fill="white">
                    <use xlink:href="#path-4"></use>
                </mask>
                <g id="Path"></g>
                <path d="M20.5,16.5 L20.5,14.2 C20.5,13.7 20.3,13.5 19.9,13.5 C19.8,13.5 19.6,13.6 19.4,13.7 C19.2,13.8 19.1,13.9 19,13.9 L19,16.6 L18,16.6 L18,13 C18,12.9 18.1,12.9 18.1,12.9 L19,12.9 L19,13.2 C19.1,13.1 19.3,13 19.4,13 C19.7,12.9 19.9,12.8 20.1,12.8 C20.9,12.8 21.4,13.3 21.4,14.2 L21.4,16.6 L20.5,16.5" id="Path" fill="#FFFFFF" fill-rule="nonzero" mask="url(#mask-5)"></path>
            </g>
            <g id="Clipped">
                <mask id="mask-7" fill="white">
                    <use xlink:href="#path-6"></use>
                </mask>
                <g id="Path"></g>
                <path d="M22.4,16.5 L22.4,10.9 C22.5,10.9 23,11.3 23.2,11.5 C23.3,11.7 23.4,11.9 23.4,12.1 L23.4,16.6 L22.4,16.5" id="Path" fill="#FFFFFF" fill-rule="nonzero" mask="url(#mask-7)"></path>
            </g>
            <g id="Clipped">
                <mask id="mask-9" fill="white">
                    <use xlink:href="#path-8"></use>
                </mask>
                <g id="Path"></g>
                <path d="M11.3,14.6 C11.3,15.9 10.4,16.6 9.3,16.6 C8.2,16.6 7.3,16 7.3,14.6 C7.3,13.2 8.2,12.6 9.3,12.6 C10.4,12.7 11.3,13.3 11.3,14.6 M10.2,14.6 C10.2,13.9 9.8,13.6 9.4,13.6 C9,13.6 8.5,13.9 8.5,14.6 C8.5,15.3 8.9,15.6 9.4,15.6 C9.8,15.7 10.2,15.3 10.2,14.6" id="Shape" fill="#383793" fill-rule="nonzero" mask="url(#mask-9)"></path>
            </g>
            <g id="Clipped">
                <mask id="mask-11" fill="white">
                    <use xlink:href="#path-10"></use>
                </mask>
                <g id="Path"></g>
                <path d="M16.4,11.7 C16.3,11.7 15.7,12 15.5,12.2 C15.4,12.3 15.3,12.6 15.3,12.8 L15.3,15.2 C15.3,16.2 15.9,16.6 16.6,16.6 C17,16.6 17.2,16.5 17.4,16.5 L17.5,16.4 L17.5,15.7 C17.5,15.7 17.2,15.8 17.1,15.8 C16.8,15.8 16.6,15.6 16.6,15.1 L16.6,13.7 L17.5,13.7 L17.5,13 C17.5,12.9 17.4,12.9 17.4,12.9 L16.6,12.9 L16.4,11.7" id="Path" fill="#383793" fill-rule="nonzero" mask="url(#mask-11)"></path>
            </g>
            <g id="Clipped">
                <mask id="mask-13" fill="white">
                    <use xlink:href="#path-12"></use>
                </mask>
                <g id="Path"></g>
                <path d="M3.2,12.9 C3.2,12.8 3.3,12.8 3.3,12.8 L4.7,12.8 C6.1,12.8 6.8,13.6 6.8,14.7 C6.8,15.8 6,16.6 4.6,16.6 L4.2,16.6 L4.2,18.4 C4.1,18.4 3.6,18 3.4,17.8 C3.3,17.7 3.2,17.4 3.2,17.2 L3.2,12.9 M5.9,14.6 C5.9,14.1 5.6,13.7 4.8,13.7 L4.4,13.7 L4.4,15.4 L4.8,15.4 C5.7,15.5 5.9,14.9 5.9,14.6" id="Shape" fill="#383793" fill-rule="nonzero" mask="url(#mask-13)"></path>
            </g>
            <g id="Clipped">
                <mask id="mask-15" fill="white">
                    <use xlink:href="#path-14"></use>
                </mask>
                <g id="Path"></g>
                <path d="M14.3,14.5 C14.1,14.3 13.8,14.3 13.5,14.2 C13.4,14.2 13.3,14.1 13.2,14.1 C12.9,14 12.6,14 12.6,13.8 C12.6,13.6 12.8,13.5 13,13.5 C13.3,13.5 13.8,13.6 14.3,13.8 L14.4,13.8 L14.4,13 C14.4,12.9 14.4,12.9 14.3,12.9 C14.1,12.8 13.6,12.7 13.1,12.7 C12.6,12.7 12.2,12.8 11.9,13 C11.6,13.2 11.5,13.5 11.5,13.9 C11.5,14.7 12.2,14.9 12.8,15 L12.9,15 C13.2,15.1 13.5,15.1 13.5,15.4 C13.5,15.5 13.5,15.5 13.4,15.6 C13.3,15.7 13.2,15.7 12.9,15.7 C12.5,15.7 11.7,15.5 11.5,15.4 L11.4,15.4 L11.4,16.1 C11.4,16.2 11.4,16.2 11.5,16.2 C11.5,16.2 12.2,16.4 12.8,16.4 C13.9,16.4 14.5,16 14.5,15.2 C14.8,15 14.6,14.7 14.3,14.5" id="Path" fill="#383793" fill-rule="nonzero" mask="url(#mask-15)"></path>
            </g>
            <g id="Clipped">
                <mask id="mask-17" fill="white">
                    <use xlink:href="#path-16"></use>
                </mask>
                <g id="Path"></g>
                <path d="M7.6,11.8 C7.5,11.8 7.5,11.8 7.5,11.6 L7.5,11.2 C7.5,11.1 7.6,11 7.7,11 L10.9,11 C11,11 11.1,11.1 11.1,11.2 L11.1,11.6 C11.1,11.7 11.1,11.8 11,11.8 L7.6,11.8 Z M10.6,10.6 C10.5,10.6 10.5,10.6 10.6,10.6 L10.5,10.5 C10.6,10.2 11,9.2 11,9.1 C11,9 11,8.9 10.9,8.9 L10.7,8.8 L10.6,8.8 C10.5,9 10.5,9.1 10.4,9.3 C10.4,9.3 10.4,9.4 10.3,9.4 L9.9,9.4 L9.9,9.3 L10.2,8.4 C10.2,8.3 10.3,8.3 10.4,8.3 L10.5,8.3 C10.6,8.3 10.8,8.4 10.9,8.4 C11,8.4 11.1,8.5 11.3,8.5 C11.7,8.6 11.7,8.9 11.6,9.2 C11.6,9.4 11.3,10 11.2,10.3 C11.2,10.4 11.1,10.4 11.1,10.5 C11.1,10.6 11,10.6 11,10.6 L10.6,10.6 L10.6,10.6 Z M9.1,10.6 C9,10.6 9,10.5 9.1,10.6 C9,10.5 9,8.6 9,8.3 L9,8.2 L9.8,8.2 L9.8,10.5 C9.8,10.5 9.8,10.6 9.7,10.6 L9.1,10.6 L9.1,10.6 Z M7.6,10.6 C7.5,10.6 7.5,10.6 7.5,10.5 C7.5,10.5 7.5,10.4 7.4,10.3 C7.3,9.9 7.1,9.3 7,9.2 C6.9,8.9 6.9,8.7 7.3,8.5 C7.4,8.5 7.5,8.4 7.7,8.4 C7.8,8.4 8,8.3 8.1,8.3 L8.2,8.3 C8.3,8.3 8.4,8.4 8.4,8.4 L8.7,9.3 L8.7,9.4 L8.2,9.4 C8.1,9.4 8.1,9.4 8.1,9.3 C8,9.1 8,9 7.9,8.8 L7.8,8.8 L7.6,8.9 C7.5,8.9 7.5,9 7.5,9.1 C7.5,9.1 7.9,10.1 8,10.5 L8,10.6 L7.6,10.6 L7.6,10.6 Z M9.3,7.9 C9.1,7.7 8.9,7.6 8.8,7.5 L8.8,7.4 C8.9,7.2 9.1,7.1 9.2,7 C9.4,7.1 9.5,7.3 9.6,7.4 L9.6,7.5 C9.7,7.6 9.5,7.7 9.3,7.9 Z" id="Shape" fill="#FFFFFF" fill-rule="nonzero" mask="url(#mask-17)"></path>
            </g>
        </g>
    </g>
</svg>