<?xml version="1.0" encoding="UTF-8"?>
<svg width="38px" height="40px" viewBox="0 0 38 40" version="1.1" xmlns="http://www.w3.org/2000/svg" xmlns:xlink="http://www.w3.org/1999/xlink">
    <title>Icon-bancontact</title>
    <g id="Icon-bancontact" stroke="none" stroke-width="1" fill="none" fill-rule="evenodd">
        <g id="icon-bancontact" transform="translate(0.000000, 8.000000)" fill-rule="nonzero">
            <path d="M34.2453342,0 L3.48118322,0 C3.35303227,0 3.22465491,0 3.09673039,0.000679245283 C2.98873039,0.00158490566 2.8809568,0.00271698113 2.7729568,0.00566037736 C2.53771152,0.012 2.3004285,0.0260377358 2.06812661,0.0676981132 C1.83515665,0.107612694 1.60943347,0.18201435 1.39839076,0.28845283 C0.974126094,0.504244247 0.629276519,0.849093822 0.413485102,1.27335849 C0.306856543,1.48448188 0.232446433,1.71038334 0.192730385,1.94354717 C0.150617178,2.17607547 0.136805857,2.41313208 0.130466234,2.64815094 C0.127522838,2.75615094 0.126164348,2.86392453 0.125485102,2.97192453 C0.125032272,3.09962264 0.125032272,3.22777358 0.125032272,3.35615094 L0.125032272,20.6356981 C0.125032272,20.7640755 0.125032272,20.892 0.125485102,21.0203774 C0.126164348,21.1281509 0.127522838,21.2361509 0.130466234,21.3441509 C0.136805857,21.578717 0.150843593,21.816 0.192730385,22.0483019 C0.232364921,22.281456 0.306699024,22.5073584 0.413258687,22.7184906 C0.52039474,22.9293542 0.660238978,23.1219266 0.82759831,23.2890566 C0.994671137,23.4564829 1.18725479,23.5963353 1.39816435,23.7033962 C1.61257944,23.8127547 1.83220208,23.8822642 2.06835303,23.9246038 C2.3004285,23.9660377 2.53771152,23.9800755 2.7729568,23.9864151 C2.8809568,23.9889057 2.98873039,23.9904906 3.09673039,23.9909434 C3.22465491,23.9918491 3.35303227,23.9918491 3.48118322,23.9918491 L34.2453342,23.9918491 C34.3732587,23.9918491 34.501636,23.9918491 34.6295606,23.9909434 C34.7375719,23.9904035 34.8455763,23.9888941 34.9535606,23.9864151 C35.188353,23.9800755 35.425636,23.9660377 35.6583908,23.9246038 C35.8914112,23.8846513 36.1171507,23.8100916 36.3281266,23.7033962 C36.7521782,23.4873114 37.0969475,23.1425422 37.3130323,22.7184906 C37.4223908,22.5040755 37.4916738,22.2844528 37.5335606,22.0483019 C37.5756738,21.816 37.5892587,21.578717 37.5955983,21.3441509 C37.5985417,21.2361509 37.6001266,21.1281509 37.6005794,21.0203774 C37.6014851,20.892 37.6014851,20.7640755 37.6014851,20.6356981 L37.6014851,3.35637736 C37.6014851,3.228 37.6014851,3.09984906 37.6005794,2.97169811 C37.6001411,2.8638337 37.5984807,2.75597772 37.5955983,2.64815094 C37.5892587,2.41313208 37.5756738,2.17607547 37.5335606,1.94354717 C37.4941261,1.71034346 37.4197824,1.48441172 37.3130323,1.27335849 C37.0971259,0.849177317 36.7523078,0.504359237 36.3281266,0.28845283 C36.1170584,0.182123882 35.8913405,0.107800268 35.6583908,0.0679245283 C35.425636,0.0260377358 35.188353,0.0122264151 34.9535606,0.00588679245 C34.8455799,0.00314422985 34.7375745,0.00148376913 34.6295606,0.000905660377 C34.501636,0 34.3732587,0 34.2453342,0 Z" id="Path" fill="#004E91"></path>
            <path d="M34.2453342,0.799698113 L34.6239002,0.800377358 C34.7262398,0.801056604 34.8288059,0.802188679 34.9318247,0.80490566 C35.1111455,0.809886792 35.3210323,0.819622642 35.5166549,0.854716981 C35.6864662,0.885283019 35.8291077,0.931698113 35.9658625,1.00143396 C36.2395407,1.1405794 36.4618777,1.36315422 36.6007304,1.63698113 C36.6700134,1.77283019 36.7162021,1.91456604 36.7467681,2.08596226 C36.781636,2.27932075 36.7913719,2.48966038 36.7961266,2.67011321 C36.79907,2.772 36.8004285,2.87388679 36.8006549,2.97803774 C36.801787,3.10415094 36.801787,3.23003774 36.801787,3.35637736 L36.801787,20.6359245 C36.801787,20.7622642 36.801787,20.8881509 36.8008813,21.0167547 C36.8004285,21.1186415 36.79907,21.2205283 36.796353,21.3224151 C36.7913719,21.5026415 36.781636,21.7129811 36.7463153,21.9086038 C36.7206385,22.0642145 36.6713937,22.2150026 36.6002776,22.3557736 C36.4611249,22.6296924 36.2384724,22.8522657 35.964504,22.9913208 C35.8286549,23.0606038 35.6864662,23.1072453 35.5182398,23.1373585 C35.3185417,23.1729057 35.1000511,23.1826415 34.9354474,23.1871698 C34.8319757,23.189434 34.7289568,23.1910189 34.623221,23.1914717 C34.4975606,23.1923774 34.371221,23.1923774 34.2453342,23.1923774 L3.47620208,23.1923774 C3.35167378,23.1923774 3.22714548,23.1923774 3.10035303,23.1914717 C2.99845608,23.1910293 2.89656517,23.1896707 2.79469265,23.1873962 C2.62623982,23.1828679 2.40752284,23.1729057 2.20963605,23.1375849 C2.05317877,23.1115114 1.90157279,23.0618921 1.75997567,22.9904151 C1.6241532,22.9214197 1.50018555,22.8312337 1.39273039,22.7232453 C1.2849361,22.6156431 1.19490974,22.4916085 1.1260134,22.3557736 C1.05478343,22.2142129 1.0053937,22.0626849 0.979522838,21.9063396 C0.944428499,21.7109434 0.93469265,21.5015094 0.929711517,21.3226415 C0.927152495,21.2203955 0.925642981,21.118126 0.925183216,21.0158491 L0.924730385,20.7153962 L0.924730385,3.27713208 L0.925183216,2.97713208 C0.925862461,2.87456604 0.926994536,2.77222642 0.929711517,2.66988679 C0.93469265,2.49056604 0.944428499,2.28113208 0.979975668,2.08415094 C1.00582621,1.92811948 1.05513918,1.77689814 1.12623982,1.63562264 C1.19507001,1.50022642 1.28473039,1.37660377 1.39340963,1.26837736 C1.50112179,1.16049007 1.62522123,1.07031929 1.76110774,1.00120755 C1.90234718,0.930165491 2.05347328,0.880782366 2.20940963,0.854716981 C2.40525869,0.819622642 2.61514548,0.809886792 2.79491906,0.80490566 C2.89725869,0.802188679 2.99982472,0.801056604 3.1014851,0.800377358 L3.48118322,0.799698113 L34.2453342,0.799698113" id="Path" fill="#FFFFFF"></path>
            <path d="M30.7579923,6.624 L22.4971737,6.624 L21.6520772,7.54971429 L18.9266409,10.5428571 L18.0815444,11.4685714 L9.92636293,11.4685714 L10.750332,10.5325714 L11.1411892,10.0902857 L11.9651583,9.15428571 L8.21504247,9.15428571 C7.52840154,9.15428571 6.9685251,9.72 6.9685251,10.3988571 L6.9685251,13.032 C6.9685251,13.7211429 7.52840154,14.2765714 8.21504247,14.2765714 L22.6028108,14.2765714 C23.2894517,14.2765714 24.2296216,13.8548571 24.683861,13.3508571 L26.8599846,10.944 L30.7579923,6.624 L30.7579923,6.624 Z" id="Path" fill="#004E91"></path>
            <path d="M32.4164942,3.816 C33.1031351,3.816 33.6630116,4.38171429 33.6630116,5.06057143 L33.6630116,7.69371429 C33.6630116,8.38285714 33.1031351,8.93828571 32.4164942,8.93828571 L28.6663784,8.93828571 L29.5009112,8.01257143 L29.9128958,7.54971429 L30.7474286,6.624 L22.48661,6.624 L18.0815444,11.4582857 L9.8735444,11.4582857 L15.757529,4.97828571 L15.9793668,4.73142857 C16.4441699,4.22742857 17.3843398,3.80571429 18.0709807,3.80571429 L32.4164942,3.80571429 L32.4164942,3.816 Z" id="Path" fill="#FFDD00"></path>
            <path d="M33.6630116,19.7897143 L33.6630116,19.4091429 C33.6630116,19.3577143 33.6313205,19.3268571 33.5573745,19.3268571 L33.3038456,19.3268571 C33.2298996,19.3268571 33.1770811,19.3165714 33.1665174,19.2857143 C33.14539,19.2548571 33.14539,19.1931429 33.14539,19.0902857 L33.14539,17.6502857 L33.5573745,17.6502857 C33.5890656,17.6502857 33.6101931,17.64 33.6313205,17.6194286 C33.6524479,17.5988571 33.6630116,17.5782857 33.6630116,17.5474286 L33.6630116,17.1462857 C33.6630116,17.1154286 33.6524479,17.0948571 33.6313205,17.0742857 C33.6101931,17.0537143 33.5890656,17.0434286 33.5573745,17.0434286 L33.14539,17.0434286 L33.14539,16.5188571 C33.14539,16.488 33.1348263,16.4674286 33.1242625,16.4571429 C33.1031351,16.4468571 33.0820077,16.4365714 33.0608803,16.4365714 L33.0503166,16.4365714 L32.4376216,16.5394286 C32.4059305,16.5497143 32.3848031,16.56 32.3636757,16.5702857 C32.3425483,16.5908571 32.3319846,16.6114286 32.3319846,16.632 L32.3319846,17.0331429 L31.92,17.0331429 C31.8883089,17.0331429 31.8671815,17.0434286 31.8460541,17.064 C31.8249266,17.0845714 31.8143629,17.1051429 31.8143629,17.136 L31.8143629,17.4651429 C31.8143629,17.496 31.8249266,17.5165714 31.8460541,17.5268571 C31.8671815,17.5474286 31.8883089,17.5577143 31.92,17.568 L32.3319846,17.6297143 L32.3319846,19.0697143 C32.3319846,19.2445714 32.353112,19.3885714 32.3848031,19.5017143 C32.4270579,19.6148571 32.4798764,19.6971429 32.5432587,19.7588571 C32.6172046,19.8205714 32.7017143,19.8617143 32.8073514,19.8822857 C32.9129884,19.9028571 33.0397529,19.9131429 33.1770811,19.9131429 C33.251027,19.9131429 33.3144093,19.9131429 33.3777915,19.9028571 C33.43061,19.8925714 33.504556,19.8822857 33.5785019,19.872 C33.6313205,19.872 33.6630116,19.8411429 33.6630116,19.7897143 M31.4657606,19.7382857 L31.4657606,19.296 C31.4657606,19.2651429 31.4551969,19.2445714 31.4340695,19.2342857 C31.4129421,19.224 31.3918147,19.2137143 31.3706873,19.2137143 L31.3601236,19.2137143 C31.2650502,19.224 31.1699768,19.2342857 31.0854672,19.2342857 C31.0009575,19.2445714 30.8847568,19.2445714 30.7368649,19.2445714 C30.6840463,19.2445714 30.6206641,19.2342857 30.5784093,19.2137143 C30.5255907,19.1931429 30.4833359,19.1622857 30.4410811,19.1211429 C30.3988263,19.08 30.3776988,19.0182857 30.3565714,18.9462857 C30.335444,18.8742857 30.3248803,18.7817143 30.3248803,18.6685714 L30.3248803,18.2571429 C30.3248803,18.144 30.335444,18.0514286 30.3565714,17.9794286 C30.3776988,17.9074286 30.40939,17.8457143 30.4410811,17.8045714 C30.4833359,17.7634286 30.5255907,17.7325714 30.5784093,17.712 C30.6312278,17.6914286 30.6840463,17.6811429 30.7368649,17.6811429 C30.8847568,17.6811429 31.0009575,17.6811429 31.0854672,17.6914286 C31.1699768,17.7017143 31.2650502,17.7017143 31.3601236,17.712 L31.3706873,17.712 C31.4023784,17.712 31.4235058,17.7017143 31.4340695,17.6914286 C31.4551969,17.6811429 31.4657606,17.6605714 31.4657606,17.6297143 L31.4657606,17.1874286 C31.4657606,17.1462857 31.4551969,17.1257143 31.4446332,17.1154286 C31.4235058,17.1051429 31.4023784,17.0845714 31.3601236,17.0742857 C31.2861776,17.0537143 31.201668,17.0434286 31.0854672,17.0228571 C30.9692664,17.0022857 30.8425019,17.0022857 30.6840463,17.0022857 C30.3248803,17.0022857 30.0396602,17.1051429 29.8178224,17.3211429 C29.6065483,17.5371429 29.4903475,17.8457143 29.4903475,18.2571429 L29.4903475,18.6685714 C29.4903475,19.0697143 29.5959846,19.3885714 29.8178224,19.6045714 C30.0290965,19.8205714 30.3248803,19.9234286 30.6840463,19.9234286 C30.8319382,19.9234286 30.9692664,19.9131429 31.0854672,19.9028571 C31.201668,19.8822857 31.2967413,19.872 31.3601236,19.8514286 C31.4023784,19.8411429 31.4235058,19.8308571 31.4446332,19.8102857 C31.4657606,19.8 31.4657606,19.7691429 31.4657606,19.7382857 M28.1593205,19.2137143 C28.0959382,19.2445714 28.032556,19.2651429 27.95861,19.2857143 C27.8846641,19.3062857 27.8107181,19.3165714 27.7367722,19.3165714 C27.6311351,19.3165714 27.5466255,19.3062857 27.4938069,19.2754286 C27.4409884,19.2445714 27.419861,19.1828571 27.419861,19.0697143 L27.419861,19.0285714 C27.419861,18.9668571 27.4304247,18.9154286 27.4409884,18.8742857 C27.4515521,18.8331429 27.4832432,18.792 27.5149344,18.7611429 C27.5466255,18.7302857 27.599444,18.7097143 27.6522625,18.6891429 C27.7050811,18.6788571 27.779027,18.6685714 27.8741004,18.6685714 L28.1593205,18.6685714 L28.1593205,19.2137143 L28.1593205,19.2137143 Z M28.9621622,18.0102857 C28.9621622,17.8251429 28.930471,17.6708571 28.8776525,17.5474286 C28.824834,17.424 28.7403243,17.3211429 28.645251,17.2388571 C28.5396139,17.1565714 28.4234131,17.0948571 28.2755212,17.064 C28.1276293,17.0228571 27.95861,17.0022857 27.779027,17.0022857 C27.6100077,17.0022857 27.4409884,17.0125714 27.2825328,17.0331429 C27.1240772,17.0537143 26.9973127,17.0742857 26.9022394,17.1051429 C26.8388571,17.1257143 26.807166,17.1565714 26.807166,17.2182857 L26.807166,17.6194286 C26.807166,17.6502857 26.8177297,17.6708571 26.8282934,17.6914286 C26.8494208,17.7017143 26.8705483,17.712 26.8916757,17.712 L26.9128031,17.712 C26.9550579,17.712 27.0078764,17.7017143 27.060695,17.7017143 C27.1240772,17.7017143 27.1874595,17.6914286 27.2614054,17.6914286 C27.3353514,17.6914286 27.419861,17.6811429 27.5043707,17.6811429 L27.7473359,17.6811429 C27.8635367,17.6811429 27.95861,17.7017143 28.0219923,17.7428571 C28.0853745,17.784 28.1276293,17.8765714 28.1276293,18.0205714 L28.1276293,18.1954286 L27.852973,18.1954286 C27.419861,18.1954286 27.0923861,18.2571429 26.9022394,18.3908571 C26.701529,18.5245714 26.6064556,18.7405714 26.6064556,19.0285714 L26.6064556,19.0697143 C26.6064556,19.2342857 26.627583,19.368 26.6804015,19.4708571 C26.7332201,19.584 26.7966023,19.6662857 26.881112,19.7382857 C26.9656216,19.8 27.0501313,19.8514286 27.1557683,19.8822857 C27.2614054,19.9131429 27.3670425,19.9234286 27.4832432,19.9234286 C27.6311351,19.9234286 27.7684633,19.9028571 27.8741004,19.8617143 C27.9797375,19.8205714 28.0853745,19.7691429 28.1910116,19.6971429 L28.1910116,19.7794286 C28.1910116,19.8102857 28.2015753,19.8308571 28.2227027,19.8514286 C28.2438301,19.872 28.2649575,19.8822857 28.2966486,19.8822857 L28.8670888,19.8822857 C28.8987799,19.8822857 28.9199073,19.872 28.9410347,19.8514286 C28.9621622,19.8308571 28.9727259,19.8102857 28.9727259,19.7794286 L28.9727259,18.0102857 L28.9621622,18.0102857 Z M26.2472896,19.7897143 L26.2472896,19.4091429 C26.2472896,19.3577143 26.2155985,19.3268571 26.1416525,19.3268571 L25.8986873,19.3268571 C25.8247413,19.3268571 25.7719228,19.3165714 25.7613591,19.2857143 C25.7402317,19.2548571 25.7402317,19.1931429 25.7402317,19.0902857 L25.7402317,17.6502857 L26.1522162,17.6502857 C26.1839073,17.6502857 26.2050347,17.64 26.2261622,17.6194286 C26.2472896,17.5988571 26.2578533,17.5782857 26.2578533,17.5474286 L26.2578533,17.1462857 C26.2578533,17.1154286 26.2472896,17.0948571 26.2261622,17.0742857 C26.2050347,17.0537143 26.1839073,17.0434286 26.1522162,17.0434286 L25.7402317,17.0434286 L25.7402317,16.5188571 C25.7402317,16.488 25.729668,16.4674286 25.7191042,16.4571429 C25.6979768,16.4468571 25.6768494,16.4365714 25.655722,16.4365714 L25.6451583,16.4365714 L25.0324633,16.5394286 C25.0007722,16.5497143 24.9796448,16.56 24.9585174,16.5702857 C24.93739,16.5908571 24.9268263,16.6114286 24.9268263,16.632 L24.9268263,17.0331429 L24.5148417,17.0331429 C24.4831506,17.0331429 24.4620232,17.0434286 24.4408958,17.064 C24.4197683,17.0845714 24.4092046,17.1051429 24.4092046,17.136 L24.4092046,17.4651429 C24.4092046,17.496 24.4197683,17.5165714 24.4408958,17.5268571 C24.4620232,17.5474286 24.4831506,17.5577143 24.5148417,17.568 L24.9268263,17.6297143 L24.9268263,19.0697143 C24.9268263,19.2445714 24.9479537,19.3885714 24.9796448,19.5017143 C25.0218996,19.6148571 25.0747181,19.6971429 25.1381004,19.7588571 C25.2014826,19.8205714 25.296556,19.8617143 25.4021931,19.8822857 C25.5078301,19.9028571 25.6345946,19.9131429 25.7719228,19.9131429 C25.8458687,19.9131429 25.909251,19.9131429 25.9726332,19.9028571 C26.0254517,19.8925714 26.0993977,19.8822857 26.1733436,19.872 C26.2155985,19.872 26.2472896,19.8411429 26.2472896,19.7897143 M24.0289112,19.7794286 L24.0289112,18.1337143 C24.0289112,17.9794286 24.0183475,17.8354286 23.9866564,17.6914286 C23.965529,17.5577143 23.9127104,17.4342857 23.8493282,17.3314286 C23.7859459,17.2285714 23.6908726,17.1462857 23.5746718,17.0948571 C23.458471,17.0331429 23.3105792,17.0022857 23.1204324,17.0022857 C22.9619768,17.0022857 22.8140849,17.0228571 22.6873205,17.064 C22.560556,17.1051429 22.4337915,17.1668571 22.2858996,17.2697143 L22.2858996,17.1462857 C22.2858996,17.1154286 22.2753359,17.0948571 22.2542085,17.0742857 C22.2330811,17.0537143 22.2119537,17.0434286 22.1802625,17.0434286 L21.6098224,17.0434286 C21.5781313,17.0434286 21.5570039,17.0537143 21.5358764,17.0742857 C21.514749,17.0948571 21.5041853,17.1154286 21.5041853,17.1462857 L21.5041853,19.7794286 C21.5041853,19.8102857 21.514749,19.8308571 21.5358764,19.8514286 C21.5570039,19.872 21.5781313,19.8822857 21.6098224,19.8822857 L22.2225174,19.8822857 C22.2542085,19.8822857 22.2753359,19.872 22.2964633,19.8514286 C22.3175907,19.8308571 22.3281544,19.8102857 22.3281544,19.7794286 L22.3281544,17.8354286 C22.4126641,17.7942857 22.4971737,17.7531429 22.5816834,17.7222857 C22.6556293,17.6914286 22.740139,17.6811429 22.8140849,17.6811429 C22.8880309,17.6811429 22.9514131,17.6914286 23.0042317,17.7017143 C23.0570502,17.712 23.0887413,17.7428571 23.1204324,17.7737143 C23.1521236,17.8148571 23.1626873,17.856 23.173251,17.9177143 C23.1838147,17.9794286 23.1838147,18.0514286 23.1838147,18.1337143 L23.1838147,19.7794286 C23.1838147,19.8102857 23.1943784,19.8308571 23.2155058,19.8514286 C23.2366332,19.872 23.2577606,19.8822857 23.2894517,19.8822857 L23.9021467,19.8822857 C23.9338378,19.8822857 23.9549653,19.872 23.9760927,19.8514286 C24.0183475,19.8308571 24.0289112,19.8 24.0289112,19.7794286 M20.183722,18.6377143 C20.183722,19.0388571 20.0358301,19.2445714 19.7294826,19.2445714 C19.5815907,19.2445714 19.46539,19.1931429 19.391444,19.0902857 C19.3174981,18.9874286 19.2752432,18.8331429 19.2752432,18.6377143 L19.2752432,18.288 C19.2752432,18.0822857 19.3174981,17.9382857 19.391444,17.8354286 C19.46539,17.7325714 19.5815907,17.6811429 19.7294826,17.6811429 C20.0252664,17.6811429 20.183722,17.8868571 20.183722,18.288 L20.183722,18.6377143 Z M21.0076911,18.288 C21.0076911,18.0925714 20.976,17.9074286 20.9231815,17.7531429 C20.8703629,17.5988571 20.7858533,17.4651429 20.6802162,17.352 C20.5745792,17.2388571 20.437251,17.1565714 20.2787954,17.0948571 C20.1203398,17.0331429 19.9407568,17.0022857 19.7294826,17.0022857 C19.5182085,17.0022857 19.3386255,17.0331429 19.1801699,17.0948571 C19.0217143,17.1565714 18.8843861,17.2388571 18.778749,17.352 C18.673112,17.4651429 18.5886023,17.5988571 18.5357838,17.7531429 C18.4829653,17.9074286 18.4512741,18.0925714 18.4512741,18.288 L18.4512741,18.6377143 C18.4512741,18.8331429 18.4829653,19.0182857 18.5357838,19.1725714 C18.5886023,19.3268571 18.673112,19.4605714 18.778749,19.5737143 C18.8843861,19.6868571 19.0217143,19.7691429 19.1801699,19.8308571 C19.3386255,19.8925714 19.5182085,19.9234286 19.7294826,19.9234286 C19.9407568,19.9234286 20.1203398,19.8925714 20.2787954,19.8308571 C20.437251,19.7691429 20.5745792,19.6868571 20.6802162,19.5737143 C20.7858533,19.4605714 20.8703629,19.3268571 20.9231815,19.1725714 C20.976,19.0182857 21.0076911,18.8331429 21.0076911,18.6377143 L21.0076911,18.288 Z M18.1766178,19.7382857 L18.1766178,19.296 C18.1766178,19.2651429 18.1660541,19.2445714 18.1449266,19.2342857 C18.1237992,19.224 18.1026718,19.2137143 18.0709807,19.2137143 L18.060417,19.2137143 C17.9653436,19.224 17.8702703,19.2342857 17.7857606,19.2342857 C17.701251,19.2342857 17.5850502,19.2445714 17.4371583,19.2445714 C17.3843398,19.2445714 17.3209575,19.2342857 17.2787027,19.2137143 C17.2258842,19.1931429 17.1836293,19.1622857 17.1413745,19.1211429 C17.0991197,19.08 17.0779923,19.0182857 17.0568649,18.9462857 C17.0357375,18.8742857 17.0251737,18.7817143 17.0251737,18.6685714 L17.0251737,18.2571429 C17.0251737,18.144 17.0357375,18.0514286 17.0568649,17.9794286 C17.0779923,17.9074286 17.1096834,17.8457143 17.1413745,17.8045714 C17.1836293,17.7634286 17.2258842,17.7325714 17.2787027,17.712 C17.3315212,17.6914286 17.3843398,17.6811429 17.4371583,17.6811429 C17.5850502,17.6811429 17.701251,17.6811429 17.7857606,17.6914286 C17.8702703,17.7017143 17.9653436,17.7017143 18.060417,17.712 L18.0709807,17.712 C18.1026718,17.712 18.1237992,17.7017143 18.1449266,17.6914286 C18.1660541,17.6811429 18.1766178,17.6605714 18.1766178,17.6297143 L18.1766178,17.1874286 C18.1766178,17.1462857 18.1660541,17.1257143 18.1554903,17.1154286 C18.1343629,17.1051429 18.1132355,17.0845714 18.0709807,17.0742857 C17.9970347,17.0537143 17.9125251,17.0434286 17.7963243,17.0228571 C17.6801236,17.0022857 17.5533591,17.0022857 17.3949035,17.0022857 C17.0357375,17.0022857 16.7505174,17.1051429 16.5286795,17.3211429 C16.3174054,17.5371429 16.2012046,17.8457143 16.2012046,18.2571429 L16.2012046,18.6685714 C16.2012046,19.0697143 16.3068417,19.3885714 16.5286795,19.6045714 C16.7399537,19.8205714 17.0357375,19.9234286 17.3949035,19.9234286 C17.5427954,19.9234286 17.6801236,19.9131429 17.7963243,19.9028571 C17.9125251,19.8822857 17.9970347,19.872 18.0709807,19.8514286 C18.1132355,19.8411429 18.1343629,19.8308571 18.1554903,19.8102857 C18.1766178,19.8 18.1766178,19.7691429 18.1766178,19.7382857 M15.683583,19.7794286 L15.683583,18.1337143 C15.683583,17.9794286 15.6730193,17.8354286 15.6413282,17.6914286 C15.6202008,17.5577143 15.5673822,17.4342857 15.504,17.3314286 C15.4406178,17.2285714 15.3455444,17.1462857 15.2293436,17.0948571 C15.1131429,17.0331429 14.965251,17.0022857 14.7751042,17.0022857 C14.6166486,17.0022857 14.4687568,17.0228571 14.3419923,17.064 C14.2152278,17.1051429 14.0884633,17.1668571 13.9405714,17.2697143 L13.9405714,17.1462857 C13.9405714,17.1154286 13.9300077,17.0948571 13.9088803,17.0742857 C13.8877529,17.0537143 13.8666255,17.0434286 13.8349344,17.0434286 L13.2644942,17.0434286 C13.2328031,17.0434286 13.2116757,17.0537143 13.1905483,17.0742857 C13.1694208,17.0948571 13.1588571,17.1154286 13.1588571,17.1462857 L13.1588571,19.7794286 C13.1588571,19.8102857 13.1694208,19.8308571 13.1905483,19.8514286 C13.2116757,19.872 13.2328031,19.8822857 13.2644942,19.8822857 L13.8771892,19.8822857 C13.9088803,19.8822857 13.9300077,19.872 13.9511351,19.8514286 C13.9722625,19.8308571 13.9828263,19.8102857 13.9828263,19.7794286 L13.9828263,17.8354286 C14.0673359,17.7942857 14.1518456,17.7531429 14.2363552,17.7222857 C14.3103012,17.6914286 14.3948108,17.6811429 14.4687568,17.6811429 C14.5427027,17.6811429 14.6060849,17.6914286 14.6589035,17.7017143 C14.711722,17.712 14.7434131,17.7428571 14.7751042,17.7737143 C14.8067954,17.8148571 14.8173591,17.856 14.8279228,17.9177143 C14.8384865,17.9794286 14.8384865,18.0514286 14.8384865,18.1337143 L14.8384865,19.7794286 C14.8384865,19.8102857 14.8490502,19.8308571 14.8701776,19.8514286 C14.891305,19.872 14.9124324,19.8822857 14.9441236,19.8822857 L15.5568185,19.8822857 C15.5885097,19.8822857 15.6096371,19.872 15.6307645,19.8514286 C15.6624556,19.8308571 15.683583,19.8 15.683583,19.7794286 M11.7538842,19.2137143 C11.6905019,19.2445714 11.6271197,19.2651429 11.5531737,19.2857143 C11.4792278,19.3062857 11.4052819,19.3165714 11.3313359,19.3165714 C11.2256988,19.3165714 11.1411892,19.3062857 11.0883707,19.2754286 C11.0355521,19.2445714 11.0144247,19.1828571 11.0144247,19.0697143 L11.0144247,19.0285714 C11.0144247,18.9668571 11.0249884,18.9154286 11.0355521,18.8742857 C11.0461158,18.8331429 11.0778069,18.792 11.1094981,18.7611429 C11.1411892,18.7302857 11.1940077,18.7097143 11.2468263,18.6891429 C11.2996448,18.6788571 11.3735907,18.6685714 11.4686641,18.6685714 L11.7538842,18.6685714 L11.7538842,19.2137143 L11.7538842,19.2137143 Z M12.5672896,18.0102857 C12.5672896,17.8251429 12.5355985,17.6708571 12.4827799,17.5474286 C12.4299614,17.424 12.3454517,17.3211429 12.2503784,17.2388571 C12.1447413,17.1565714 12.0285405,17.0948571 11.8806486,17.064 C11.7327568,17.0228571 11.5637375,17.0022857 11.3841544,17.0022857 C11.2151351,17.0022857 11.0461158,17.0125714 10.8876602,17.0331429 C10.7292046,17.0537143 10.6024402,17.0742857 10.5073668,17.1051429 C10.4439846,17.1257143 10.4122934,17.1565714 10.4122934,17.2182857 L10.4122934,17.6194286 C10.4122934,17.6502857 10.4228571,17.6708571 10.4334208,17.6914286 C10.4545483,17.7017143 10.4756757,17.712 10.4968031,17.712 L10.5179305,17.712 C10.5601853,17.712 10.6130039,17.7017143 10.6658224,17.7017143 C10.7292046,17.7017143 10.7925869,17.6914286 10.8770965,17.6914286 C10.9510425,17.6914286 11.0355521,17.6811429 11.1200618,17.6811429 L11.363027,17.6811429 C11.4792278,17.6811429 11.5743012,17.7017143 11.6376834,17.7428571 C11.7010656,17.784 11.7433205,17.8765714 11.7433205,18.0205714 L11.7433205,18.1954286 L11.4686641,18.1954286 C11.0355521,18.1954286 10.7080772,18.2571429 10.5179305,18.3908571 C10.3277838,18.5245714 10.2221467,18.7405714 10.2221467,19.0285714 L10.2221467,19.0697143 C10.2221467,19.2342857 10.2432741,19.368 10.2960927,19.4708571 C10.3489112,19.584 10.4122934,19.6662857 10.4968031,19.7382857 C10.5813127,19.8 10.6658224,19.8514286 10.7714595,19.8822857 C10.8770965,19.9131429 10.9827336,19.9234286 11.0989344,19.9234286 C11.2468263,19.9234286 11.3841544,19.9028571 11.4897915,19.8617143 C11.5954286,19.8205714 11.7010656,19.7691429 11.8067027,19.6971429 L11.8067027,19.7794286 C11.8067027,19.8102857 11.8172664,19.8308571 11.8383938,19.8514286 C11.8595212,19.872 11.8806486,19.8822857 11.9123398,19.8822857 L12.4827799,19.8822857 C12.514471,19.8822857 12.5355985,19.872 12.5567259,19.8514286 C12.5778533,19.8308571 12.588417,19.8102857 12.588417,19.7794286 L12.588417,18.0102857 L12.5672896,18.0102857 Z M8.93337452,18.792 C8.93337452,18.9257143 8.88055598,19.0388571 8.78548263,19.1108571 C8.69040927,19.1828571 8.50026255,19.224 8.24673359,19.224 L7.82418533,19.224 L7.82418533,18.2982857 L8.39462548,18.2982857 C8.59533591,18.2982857 8.7432278,18.3394286 8.81717375,18.432 C8.89111969,18.5245714 8.93337452,18.6274286 8.93337452,18.7405714 L8.93337452,18.792 Z M8.9122471,17.3211429 C8.9122471,17.3725714 8.9016834,17.424 8.89111969,17.4754286 C8.86999228,17.5268571 8.84886486,17.568 8.80661004,17.5988571 C8.76435521,17.6297143 8.71153668,17.6605714 8.64815444,17.6811429 C8.5847722,17.7017143 8.50026255,17.712 8.39462548,17.712 L7.82418533,17.712 L7.82418533,16.8582857 L8.21504247,16.8582857 C8.47913514,16.8582857 8.65871815,16.8891429 8.76435521,16.9508571 C8.86999228,17.0125714 8.92281081,17.1154286 8.92281081,17.2491429 L8.92281081,17.3211429 L8.9122471,17.3211429 Z M9.77847104,18.7405714 C9.77847104,18.5657143 9.73621622,18.4217143 9.65170656,18.2982857 C9.56719691,18.1748571 9.46155985,18.072 9.32423166,18.0102857 C9.46155985,17.9485714 9.56719691,17.8457143 9.64114286,17.7222857 C9.7150888,17.5885714 9.75734363,17.4445714 9.75734363,17.2902857 L9.75734363,17.1977143 C9.75734363,17.0022857 9.7150888,16.8377143 9.64114286,16.704 C9.56719691,16.5702857 9.45099614,16.4674286 9.31366795,16.3851429 C9.17633977,16.3028571 9.00732046,16.2514286 8.80661004,16.2102857 C8.60589961,16.1794286 8.39462548,16.1588571 8.15166023,16.1588571 L7.89813127,16.1588571 C7.81362162,16.1588571 7.72911197,16.1691429 7.64460232,16.1691429 C7.56009266,16.1691429 7.48614672,16.1794286 7.41220077,16.1897143 C7.33825483,16.2 7.28543629,16.2 7.24318147,16.2102857 C7.14810811,16.2308571 7.07416216,16.2514286 7.03190734,16.3028571 C6.98965251,16.344 6.9685251,16.4262857 6.9685251,16.5394286 L6.9685251,19.5428571 C6.9685251,19.656 6.98965251,19.728 7.03190734,19.7794286 C7.07416216,19.8205714 7.14810811,19.8514286 7.24318147,19.872 C7.296,19.8822857 7.35938224,19.8925714 7.42276448,19.8925714 C7.49671042,19.9028571 7.57065637,19.9028571 7.65516602,19.9131429 C7.73967568,19.9131429 7.82418533,19.9234286 7.90869498,19.9234286 L8.17278764,19.9234286 C8.39462548,19.9234286 8.60589961,19.9028571 8.79604633,19.872 C8.98619305,19.8411429 9.16577606,19.7794286 9.30310425,19.6971429 C9.45099614,19.6148571 9.5566332,19.5017143 9.65170656,19.3577143 C9.73621622,19.2137143 9.77847104,19.0285714 9.77847104,18.8125714 L9.77847104,18.7405714 L9.77847104,18.7405714 Z" id="Shape" fill="#004E91"></path>
        </g>
    </g>
</svg>