<?xml version="1.0" encoding="UTF-8"?>
<svg width="67px" height="40px" viewBox="0 0 67 40" version="1.1" xmlns="http://www.w3.org/2000/svg" xmlns:xlink="http://www.w3.org/1999/xlink">
    <title>Icon-webshopkeurmerk</title>
    <defs>
        <linearGradient x1="50.4008697%" y1="12.1998202%" x2="50.4008697%" y2="87.8001798%" id="linearGradient-1">
            <stop stop-color="#DFECAE" offset="0%"></stop>
            <stop stop-color="#8BC53F" offset="100%"></stop>
        </linearGradient>
        <radialGradient cx="-1301.21229%" cy="549.477124%" fx="-1301.21229%" fy="549.477124%" r="3.49591204%" gradientTransform="translate(-13.012123,5.494771),scale(1.000000,0.579575),translate(13.012123,-5.494771)" id="radialGradient-2">
            <stop stop-color="#D0D1C9" offset="0%"></stop>
            <stop stop-color="#D0D1C9" offset="1%"></stop>
            <stop stop-color="#C6C9C5" offset="38%"></stop>
            <stop stop-color="#B8BCBE" offset="75%"></stop>
            <stop stop-color="#BCBAB7" offset="88%"></stop>
            <stop stop-color="#BCBAB7" offset="100%"></stop>
        </radialGradient>
        <linearGradient x1="49.7017134%" y1="-12.8946448%" x2="49.7017134%" y2="68.1232508%" id="linearGradient-3">
            <stop stop-color="#FFFFFF" offset="0%"></stop>
            <stop stop-color="#DE3870" offset="100%"></stop>
        </linearGradient>
    </defs>
    <g id="Icon-webshopkeurmerk" stroke="none" stroke-width="1" fill="none" fill-rule="evenodd">
        <g id="keurmerk" transform="translate(0.000000, 11.000000)" fill-rule="nonzero">
            <path d="M59.1260929,2.00819672 L59.1260929,1.97472678 L45.2504098,1.97472678 L45.2504098,16.8678962 L59.1260929,16.8678962 L59.1260929,16.8306011 C61.8139992,16.8916702 64.3242789,15.4926116 65.6861708,13.1744615 C67.0480627,10.8563113 67.0480627,7.98248649 65.6861708,5.66433636 C64.3242789,3.34618622 61.8139992,1.94712765 59.1260929,2.00819672 Z" id="Path" fill="#F7F7F7"></path>
            <path d="M57.4478142,3.79166667 L57.4478142,3.82513661 L59.2647541,3.82513661 C62.2974142,3.90444387 64.7146331,6.38570199 64.7146331,9.41939891 C64.7146331,12.4530958 62.2974142,14.9343539 59.2647541,15.0136612 L57.4478142,15.0471311 L47.2050546,15.0471311 L47.2050546,3.79166667 L57.4478142,3.79166667 M59.2647541,1.97472678 L45.3881148,1.97472678 L45.3881148,16.8678962 L59.2647541,16.8678962 L59.2647541,16.8306011 C63.2922557,16.7390965 66.5094868,13.4479398 66.5094868,9.41939891 C66.5094868,5.39085799 63.2922557,2.09970131 59.2647541,2.00819672 L59.2647541,1.97472678 Z" id="Shape" stroke="#8BC53F" fill="url(#linearGradient-1)"></path>
            <polygon id="Path" fill="#231F20" points="0 2.53797814 1.14371585 2.53797814 2.02540984 6.43770492 3.11653005 2.53797814 4.08333333 2.53797814 5.1897541 6.43770492 6.06379781 2.53797814 7.20751366 2.53797814 5.83142077 8.64576503 4.71639344 8.64576503 3.59084699 4.69726776 2.4863388 8.64576503 1.3818306 8.64576503"></polygon>
            <polygon id="Path" fill="#231F20" points="8.82459016 2.53797814 12.159153 2.53797814 12.159153 3.67595628 9.97882514 3.67595628 9.97882514 4.78046448 12.159153 4.78046448 12.159153 5.89644809 9.97882514 5.89644809 9.97882514 7.50396175 12.159153 7.50396175 12.159153 8.64576503 8.82459016 8.64576503"></polygon>
            <path d="M13.9483607,8.64576503 L13.9483607,2.54084699 L14.9046448,2.54084699 C15.4618397,2.54084699 15.8695355,2.57686703 16.1277322,2.6489071 C16.4692211,2.73060058 16.7753457,2.9200424 17.0008197,3.18920765 C17.2162047,3.45044683 17.3308735,3.78020447 17.3240437,4.11871585 C17.3271937,4.33857496 17.276642,4.55588131 17.176776,4.75177596 C17.0594076,4.9632363 16.8959972,5.14560229 16.6986339,5.28538251 C17.0256027,5.42323685 17.3074898,5.64980652 17.5124317,5.93948087 C17.6886002,6.2161804 17.7781703,6.5391653 17.7696721,6.8670765 C17.7727289,7.19688905 17.6814886,7.52070908 17.506694,7.80040984 C17.3417578,8.07156921 17.1042568,8.29118306 16.8210383,8.43442623 C16.5405282,8.57404372 16.1538707,8.64385246 15.6610656,8.64385246 L13.9483607,8.64576503 Z M15.1092896,3.64631148 L15.1092896,4.93155738 L15.3636612,4.93155738 C15.6505464,4.93155738 15.8580601,4.87226776 15.9948087,4.75273224 C16.1340901,4.63114519 16.2101685,4.45257217 16.2013661,4.26789617 C16.2082995,4.09431221 16.1362142,3.92693374 16.0053279,3.81270492 C15.8743169,3.70081967 15.6763661,3.64439891 15.4095628,3.64439891 L15.1092896,3.64631148 Z M15.1092896,5.97199454 L15.1092896,7.53647541 L15.3961749,7.53647541 C15.8794171,7.53647541 16.2048725,7.47591075 16.372541,7.35478142 C16.5409212,7.23150699 16.6355512,7.03145266 16.6240437,6.82308743 C16.6332037,6.57948557 16.5229011,6.34674366 16.3285519,6.19959016 C16.1315574,6.04849727 15.8038707,5.97263206 15.3454918,5.97199454 L15.1092896,5.97199454 Z" id="Shape" fill="#231F20"></path>
            <path d="M22.7930328,3.36803279 L21.932377,4.13306011 C21.6295537,3.70910747 21.3213115,3.49713115 21.0076503,3.49713115 C20.8723651,3.49174796 20.7396551,3.53519267 20.6337432,3.61953552 C20.5451763,3.68423621 20.4915148,3.7862636 20.488388,3.89590164 C20.4902129,4.00046996 20.5268972,4.10143584 20.592623,4.18278689 C20.6863388,4.30519126 20.9703552,4.56657559 21.4446721,4.96693989 C21.8909381,5.33797814 22.1599727,5.571949 22.251776,5.66885246 C22.4572507,5.86556872 22.6268247,6.09662949 22.7528689,6.35163934 C22.8524829,6.57584 22.90302,6.81874438 22.9010929,7.06407104 C22.9148129,7.53404215 22.7252227,7.98710718 22.3808743,8.30724044 C22.0346995,8.63428962 21.5830146,8.79781421 21.0258197,8.79781421 C20.6241783,8.80709319 20.2289178,8.69620711 19.8907104,8.47937158 C19.5674863,8.26643898 19.2911202,7.93173953 19.061612,7.47527322 L20.0389344,6.8852459 C20.3321949,7.42522769 20.6704007,7.69521858 21.0535519,7.69521858 C21.2370009,7.70050024 21.4160012,7.63822449 21.5565574,7.52021858 C21.6825901,7.42434881 21.7576689,7.27595367 21.7602459,7.11762295 C21.7558664,6.9661323 21.701764,6.82029101 21.6062842,6.70259563 C21.4036262,6.46765298 21.17668,6.25481079 20.929235,6.06762295 C20.2623862,5.52509107 19.8320583,5.10655738 19.6382514,4.81202186 C19.4575371,4.55224284 19.3577196,4.24480495 19.3513661,3.9284153 C19.3479346,3.51253319 19.5243404,3.11544576 19.8352459,2.83920765 C20.158141,2.53598231 20.5878186,2.37270483 21.0306011,2.38497268 C21.3328022,2.38471851 21.630625,2.45720622 21.8989071,2.59631148 C22.1730419,2.73784153 22.4710838,2.99508197 22.7930328,3.36803279 Z" id="Path" fill="#231F20"></path>
            <polygon id="Path" fill="#231F20" points="24.7103825 2.53797814 25.8894809 2.53797814 25.8894809 4.84262295 27.9282787 4.84262295 27.9282787 2.53797814 29.1035519 2.53797814 29.1035519 8.64576503 27.9282787 8.64576503 27.9282787 5.9681694 25.8894809 5.9681694 25.8894809 8.64576503 24.7103825 8.64576503"></polygon>
            <path d="M34.0877049,2.38497268 C34.9284694,2.37512251 35.7356499,2.71447767 36.3168033,3.32213115 C36.9288384,3.92447691 37.2663275,4.75194746 37.2501366,5.61051913 C37.267473,6.45908843 36.9347607,7.27738094 36.3301913,7.87308743 C35.745957,8.47768218 34.9369341,8.81258163 34.0963115,8.79781421 C33.1789162,8.79781421 32.4170765,8.47905282 31.8107923,7.84153005 C31.2179258,7.2408277 30.8903899,6.42767064 30.9013661,5.58374317 C30.8965335,4.73841582 31.227711,3.92579262 31.8220403,3.32464843 C32.4163696,2.72350423 33.2251643,2.3830838 34.0704918,2.37827869 L34.0877049,2.37827869 L34.0877049,2.38497268 Z M34.0752732,3.52199454 C33.5383626,3.51041861 33.0211843,3.72443535 32.6494536,4.11202186 C32.2669399,4.50409836 32.0756831,5.00359745 32.0756831,5.61051913 C32.0756831,6.28629326 32.3179417,6.82053734 32.802459,7.21325137 C33.166296,7.51592408 33.6259343,7.67930583 34.0991803,7.67418033 C34.6319614,7.68235884 35.1434567,7.46532925 35.5077869,7.07650273 C35.8929381,6.68351217 36.1020718,6.1510151 36.0872951,5.60095628 C36.0996748,5.04975425 35.8881832,4.51705772 35.5010929,4.12445355 C35.1319474,3.73168993 34.6142068,3.51292629 34.0752732,3.52199454 L34.0752732,3.52199454 Z" id="Shape" fill="#231F20"></path>
            <path d="M39.0479508,2.54084699 L40.2806011,2.54084699 C40.9480874,2.54084699 41.4290984,2.60236794 41.7236339,2.72540984 C42.0146216,2.84473917 42.2594134,3.05465647 42.4217213,3.32404372 C42.5976901,3.62356309 42.6858391,3.96654879 42.6760929,4.31379781 C42.6903165,4.69607621 42.5724614,5.07159176 42.3423497,5.37718579 C42.1106545,5.66557318 41.7925702,5.87204303 41.4348361,5.96625683 C41.2110656,6.03000911 40.803051,6.06188525 40.2107923,6.06188525 L40.2107923,8.64385246 L39.0479508,8.64385246 L39.0479508,2.54084699 Z M40.2107923,4.93155738 L40.579918,4.93155738 C40.7840086,4.94221349 40.9885197,4.92124626 41.1862022,4.86939891 C41.2950279,4.8310452 41.3888123,4.75903217 41.4539617,4.66379781 C41.5203303,4.56012019 41.5536756,4.4387435 41.5495902,4.31571038 C41.5631952,4.10551228 41.4569688,3.90564376 41.2751366,3.79931694 C41.1422131,3.71898907 40.892623,3.67786885 40.535929,3.67786885 L40.2088798,3.67786885 L40.2107923,4.93155738 Z" id="Shape" fill="#231F20"></path>
            <polygon id="Path" fill="#231F20" points="1.1886612 11.1961749 1.81120219 11.1961749 1.81120219 13.4893443 4.25259563 11.1961749 5.07308743 11.1961749 2.13920765 13.9378415 5.30163934 17.304918 4.48879781 17.304918 1.81120219 14.4599727 1.81120219 17.304918 1.1886612 17.304918"></polygon>
            <polygon id="Path" fill="#231F20" points="6.21680328 11.1961749 9.71680328 11.1961749 9.71680328 11.795765 6.82691257 11.795765 6.82691257 13.7092896 9.69193989 13.7092896 9.69193989 14.3069672 6.82691257 14.3069672 6.82691257 16.7072404 9.69193989 16.7072404 9.69193989 17.304918 6.21680328 17.304918"></polygon>
            <path d="M10.792623,11.1961749 L11.4027322,11.1961749 L11.4027322,14.8836066 C11.3965511,15.1567139 11.4048505,15.429957 11.4275956,15.7021858 C11.4487478,15.9177797 11.5215706,16.1250952 11.6398907,16.3065574 C11.7706132,16.4849585 11.9465627,16.6252559 12.1495902,16.7129781 C12.3658236,16.8189643 12.6030523,16.8751673 12.8438525,16.877459 C13.0447802,16.8775719 13.2432745,16.8334983 13.4252732,16.7483607 C13.605675,16.6669767 13.7647564,16.5448833 13.8900273,16.3916667 C14.0194277,16.2289463 14.1126642,16.0405172 14.1635246,15.8389344 C14.2056011,15.6849727 14.2256831,15.3655738 14.2256831,14.8826503 L14.2256831,11.1961749 L14.8367486,11.1961749 L14.8367486,14.8836066 C14.8495911,15.3303198 14.7954382,15.7764365 14.6760929,16.2071038 C14.5588849,16.558652 14.335742,16.8653064 14.0372951,17.0849727 C13.7045955,17.3382512 13.2953072,17.4701818 12.8773224,17.4588798 C12.4289049,17.4717535 11.987119,17.3483869 11.6102459,17.1050546 C11.2700928,16.8881932 11.0187457,16.556795 10.9016393,16.170765 C10.8270492,15.9336066 10.7897541,15.5045537 10.7897541,14.8836066 L10.792623,11.1961749 Z" id="Path" fill="#231F20"></path>
            <path d="M16.372541,11.1961749 L17.5898907,11.1961749 C18.2669399,11.1961749 18.726275,11.2242259 18.9678962,11.2803279 C19.3147171,11.3545231 19.6263717,11.5435374 19.852459,11.8168033 C20.0828485,12.1012401 20.203634,12.4588466 20.1928962,12.8247268 C20.1992186,13.1332958 20.117985,13.4373415 19.9586066,13.7016393 C19.7994439,13.9568889 19.5657968,14.1571578 19.2892077,14.2754098 C19.0023224,14.4035519 18.5968579,14.4666667 18.0842896,14.4724044 L20.2837432,17.3087432 L19.5282787,17.3087432 L17.3288251,14.4724044 L16.9845628,14.4724044 L16.9845628,17.3087432 L16.3734973,17.3087432 L16.372541,11.1961749 Z M16.9836066,11.795765 L16.9836066,13.8661202 L18.0355191,13.8747268 C18.4428962,13.8747268 18.7441257,13.8361566 18.9392077,13.7590164 C19.1277274,13.6871605 19.2882623,13.5567887 19.3972678,13.3870219 C19.5071626,13.2160275 19.5643611,13.0164978 19.5617486,12.8132514 C19.5637168,12.6142982 19.5057357,12.4193617 19.3953552,12.2538251 C19.2905956,12.0914598 19.1378395,11.9657786 18.9583333,11.8942623 C18.7785519,11.8228597 18.479235,11.7871585 18.0603825,11.7871585 L16.9836066,11.795765 Z" id="Shape" fill="#231F20"></path>
            <polygon id="Path" fill="#231F20" points="21.2228142 17.304918 22.0968579 11.1961749 22.1963115 11.1961749 24.6788251 16.2099727 27.138388 11.1961749 27.235929 11.1961749 28.1147541 17.304918 27.5161202 17.304918 26.9127049 12.936612 24.7534153 17.304918 24.597541 17.304918 22.4124317 12.9031421 21.8118852 17.304918"></polygon>
            <polygon id="Path" fill="#231F20" points="29.3187158 11.1961749 32.8196721 11.1961749 32.8196721 11.795765 29.9297814 11.795765 29.9297814 13.7092896 32.7948087 13.7092896 32.7948087 14.3069672 29.9297814 14.3069672 29.9297814 16.7072404 32.7948087 16.7072404 32.7948087 17.304918 29.3187158 17.304918"></polygon>
            <path d="M33.9069672,11.1961749 L35.1233607,11.1961749 C35.8010474,11.1961749 36.2607013,11.2242259 36.5023224,11.2803279 C36.8505277,11.3537237 37.1636432,11.5428063 37.3907104,11.8168033 C37.6210999,12.1012401 37.7418854,12.4588466 37.7311475,12.8247268 C37.7376036,13.1334404 37.6560057,13.4376082 37.4959016,13.7016393 C37.3370712,13.9571742 37.103323,14.1575298 36.8265027,14.2754098 C36.5396175,14.4035519 36.1331967,14.4666667 35.6215847,14.4724044 L37.8210383,17.3087432 L37.0655738,17.3087432 L34.8661202,14.4724044 L34.5218579,14.4724044 L34.5218579,17.3087432 L33.9117486,17.3087432 L33.9069672,11.1961749 Z M34.5170765,11.795765 L34.5170765,13.8661202 L35.5689891,13.8747268 C35.9754098,13.8747268 36.2775956,13.8364754 36.4736339,13.7590164 C36.6617329,13.6868679 36.8218788,13.55654 36.9307377,13.3870219 C37.0411038,13.2162412 37.098344,13.0165662 37.0952186,12.8132514 C37.0971868,12.6142982 37.0392057,12.4193617 36.9288251,12.2538251 C36.8242586,12.0912881 36.6714408,11.9655562 36.4918033,11.8942623 C36.3120219,11.822541 36.0136612,11.7871585 35.5938525,11.7871585 L34.5170765,11.795765 Z" id="Shape" fill="#231F20"></path>
            <polygon id="Path" fill="#231F20" points="39.0345628 11.1961749 39.6580601 11.1961749 39.6580601 13.4893443 42.0994536 11.1961749 42.9189891 11.1961749 39.9860656 13.9378415 43.147541 17.304918 42.3346995 17.304918 39.6580601 14.4599727 39.6580601 17.304918 39.0345628 17.304918"></polygon>
            <path d="M50.5128415,5.06352459 L53.8780055,10.9121585 L53.9047814,10.8729508 L50.7155738,5.32650273 C50.6593947,5.22945684 50.5912877,5.13982551 50.5128415,5.05969945" id="Path" fill="url(#radialGradient-2)"></path>
            <path d="M54.1581967,14.7812842 L54.1027322,14.7812842 C53.6522293,14.7628691 53.2425771,14.5149122 53.0173497,14.1243169 L48.6079235,6.46161202 C48.2332074,5.8389336 48.4342205,5.03038558 49.0568989,4.65566944 C49.6795773,4.2809533 50.4881254,4.48196642 50.8628415,5.10464481 L50.8886612,5.14959016 L54.2605191,11.0096995 L61.3934426,0.717213115 C61.6499559,0.304382688 62.1131484,0.0665706839 62.5981175,0.098709674 C63.0830867,0.130848664 63.5108467,0.427704242 63.7106393,0.870774135 C63.9104318,1.31384403 63.8497172,1.83096643 63.5527322,2.21571038 L55.2397541,14.2161202 C54.9934416,14.5701457 54.5894784,14.7812842 54.1581967,14.7812842" id="Path" fill="#B5B5B5"></path>
            <path d="M53.7756831,14.6856557 L53.7202186,14.6856557 C53.2697156,14.6672407 52.8600634,14.4192838 52.6348361,14.0286885 L48.2254098,6.36598361 C47.8506937,5.74330519 48.0517069,4.93475717 48.6743853,4.56004103 C49.2970637,4.18532489 50.1056117,4.386338 50.4803279,5.00901639 L50.5061475,5.05396175 L53.8780055,10.914071 L61.010929,0.621584699 C61.2674422,0.208754272 61.7306347,-0.0290577314 62.2156039,0.00308125872 C62.700573,0.0352202489 63.128333,0.332075827 63.3281256,0.77514572 C63.5279182,1.21821561 63.4672036,1.73533801 63.1702186,2.12008197 L54.8572404,14.1204918 C54.6109279,14.4745172 54.2069647,14.6856557 53.7756831,14.6856557" id="Path" fill="#D91C5C"></path>
            <path d="M62.0800546,0.212295082 C61.691189,0.212455797 61.3272394,0.403725939 61.1065574,0.723907104 L53.7833333,11.4266393 C53.7833333,11.4266393 50.8360656,5.86680328 50.4487705,5.21844262 C50.2218893,4.82018922 49.8025021,4.57037242 49.3442623,4.56051913 C49.1226418,4.55689147 48.9056154,4.62387496 48.7245902,4.75177596 C48.1001366,5.21079235 48.098224,5.80368852 48.4243169,6.36789617 L52.7581967,13.8345628 C52.9610261,14.1863002 53.3298395,14.4096813 53.7355191,14.4265027 L53.7852459,14.4265027 C54.1724998,14.4249785 54.5345691,14.234303 54.754918,13.915847 L63.0516393,2.07131148 C63.302816,1.70950342 63.3323723,1.23816585 63.1283614,0.847814289 C62.9243505,0.457462723 62.5205029,0.212636596 62.0800546,0.212295082" id="Path" fill="url(#linearGradient-3)"></path>
        </g>
    </g>
</svg>