<?xml version="1.0" encoding="UTF-8"?>
<svg width="38px" height="40px" viewBox="0 0 38 40" version="1.1" xmlns="http://www.w3.org/2000/svg" xmlns:xlink="http://www.w3.org/1999/xlink">
    <title>Icon-thuiswinkel</title>
    <defs>
        <polygon id="path-1" points="0.00594 4.455 0.00594 0.0198 2.03742 0.0198 2.03742 4.455"></polygon>
        <polygon id="path-3" points="5.2866 4.74606 0.06534 4.74606 0.06534 0.08613 5.2866 0.08613"></polygon>
    </defs>
    <g id="Icon-thuiswinkel" stroke="none" stroke-width="1" fill="none" fill-rule="evenodd">
        <g id="icon-thuiswinkel" transform="translate(1.000000, 3.000000)">
            <g id="Clipped" transform="translate(0.000000, 22.869000)">
                <mask id="mask-2" fill="white">
                    <use xlink:href="#path-1"></use>
                </mask>
                <g id="Path"></g>
                <path d="M0.38808,0.0198 L1.33056,0.0198 L1.33056,0.7821 L2.0097,0.7821 L2.0097,1.55925 L1.33056,1.55925 L1.33056,2.9601 C1.33056,3.49965 1.49688,3.61053 1.86516,3.61053 C1.92654,3.61053 1.96119,3.61053 2.03742,3.6036 L2.03742,4.42134 C2.03742,4.42134 1.89189,4.45599 1.62855,4.45599 C0.7623,4.45599 0.38115,3.97089 0.38115,2.99079 L0.38115,1.5642 L0,1.5642 L0,0.7821 L0.38808,0.7821 L0.38808,0.0198" id="Path" fill="#1E1E1E" fill-rule="nonzero" mask="url(#mask-2)"></path>
            </g>
            <path d="M5.87664,25.18362 L5.87664,27.27648 L4.92624,27.27648 L4.92624,25.07274 C4.92624,24.6708 4.64904,24.42132 4.32432,24.42132 C3.92238,24.42132 3.66597,24.71238 3.66597,25.10046 L3.66597,27.27648 L2.70963,27.27648 L2.70963,22.2651 L3.66597,22.2651 L3.66597,24.07482 C3.81843,23.82435 4.15107,23.56002 4.62231,23.56002 C5.66181,23.562 5.86971,24.41439 5.86971,25.18362 M6.67161,25.74495 L6.67161,23.6511 L7.62498,23.6511 L7.62498,25.85583 C7.62498,26.25777 7.90218,26.50725 8.22888,26.50725 C8.62488,26.50725 8.87238,26.21619 8.87238,25.82811 L8.87238,23.65011 L9.82872,23.65011 L9.82872,27.27351 L8.89812,27.27351 L8.89812,26.84781 C8.74566,27.09531 8.39916,27.36261 7.92792,27.36261 C6.89535,27.36261 6.67359,26.51121 6.67359,25.73901 M10.65834,27.27351 L11.60874,27.27351 L11.60874,23.65011 L10.64844,23.65011 L10.64844,27.27351 L10.65834,27.27351 Z M11.12364,22.22451 C11.44044,22.22451 11.68101,22.46211 11.68101,22.76901 C11.68101,23.08086 11.43945,23.31648 11.12067,23.31648 C10.80783,23.31648 10.56627,23.08383 10.56627,22.77198 C10.56627,22.46013 10.80783,22.22451 11.12067,22.22451 L11.12364,22.22451 Z M12.22254,26.68941 L12.78387,26.18649 C12.96207,26.39439 13.20462,26.58249 13.61547,26.58249 C13.88277,26.58249 14.05701,26.46369 14.05701,26.25579 C14.05701,25.70139 12.34431,25.91424 12.34431,24.62427 C12.34431,23.95107 12.92148,23.55012 13.66101,23.55012 C14.34906,23.55012 14.73021,23.90652 14.90346,24.19362 L14.2758,24.66189 C14.1669,24.52329 13.96395,24.31539 13.6224,24.31539 C13.40262,24.31539 13.25016,24.42726 13.25016,24.60744 C13.25016,25.18164 14.96682,24.90444 14.96682,26.20134 C14.96682,26.9082 14.35797,27.35172 13.57488,27.35172 C12.86208,27.35172 12.41658,26.99136 12.22254,26.67852 M18.0873,24.948 L17.4141,27.27054 L16.3548,27.27054 L15.27372,23.64714 L16.31322,23.64714 L16.95078,26.21718 L17.64378,23.64615 L18.54468,23.64615 L19.22778,26.22015 L19.87128,23.64813 L20.91078,23.64813 L19.82475,27.27153 L18.7605,27.27153 L18.09423,24.95097 M21.44043,27.26757 L22.39776,27.26757 L22.39776,23.64417 L21.44142,23.64417 L21.44142,27.26757 L21.44043,27.26757 Z M21.91266,22.22253 C22.23144,22.22253 22.47399,22.45815 22.47399,22.77 C22.47399,23.08185 22.23639,23.31747 21.91959,23.31747 C21.61269,23.31747 21.36519,23.08581 21.36519,22.77297 C21.36519,22.46013 21.61269,22.22649 21.91959,22.22649 L21.91266,22.22253 Z M26.41716,25.1757 L26.41716,27.26856 L25.46082,27.26856 L25.46082,25.0668 C25.46082,24.66387 25.18362,24.4134 24.85692,24.4134 C24.4629,24.4134 24.21342,24.70545 24.21342,25.09353 L24.21342,27.26955 L23.25708,27.26955 L23.25708,23.64615 L24.19263,23.64615 L24.19263,24.06888 C24.34509,23.81841 24.69159,23.55408 25.16283,23.55408 C26.1954,23.55606 26.41716,24.40845 26.41716,25.17768 M27.24183,22.25916 L28.19817,22.25916 L28.19817,25.16976 L29.36241,23.64516 L30.43161,23.64516 L29.15451,25.28856 L30.52071,27.26856 L29.403,27.26856 L28.19124,25.39746 L28.19124,27.26856 L27.2349,27.26856 L27.2349,22.25916 M33.39765,25.07373 C33.37785,24.62823 33.05709,24.33816 32.6205,24.33816 C32.17104,24.33816 31.878,24.65793 31.8384,25.07373 L33.39765,25.07373 Z M32.6106,23.562 C33.73326,23.562 34.37082,24.31044 34.37082,25.49547 C34.37082,25.56477 34.37082,25.63407 34.36389,25.70337 L31.81959,25.70337 C31.83939,26.18847 32.23242,26.53497 32.76603,26.53497 C33.25311,26.53497 33.53823,26.24391 33.64119,26.09145 L34.27083,26.56962 C34.13223,26.82702 33.64713,27.36657 32.74623,27.36657 C31.58298,27.36657 30.84147,26.56269 30.84147,25.47567 C30.84147,24.37974 31.58397,23.562 32.61357,23.562 L32.6106,23.562 Z M35.00838,27.27648 L35.96472,27.27648 L35.96472,22.2651 L35.00838,22.2651 M6.56568,31.05333 L5.6727,33.71148 L5.11236,33.71148 L3.98673,30.36528 L4.53618,30.36528 L5.41134,33.11946 C5.41134,33.11946 5.41728,33.10659 6.31224,30.36528 L6.81417,30.36528 C7.70121,33.10758 7.70715,33.11946 7.70715,33.11946 L8.58825,30.36528 L9.14265,30.36528 L8.0091,33.71148 L7.4547,33.71148 L6.56667,31.05333 M10.86723,33.36993 C11.35629,33.36993 11.69883,33.08085 11.69883,32.67495 C11.69883,32.25717 11.36223,31.9869 10.86129,31.9869 C10.35639,31.9869 10.02969,32.2839 10.02969,32.67495 C10.02969,33.06105 10.35639,33.36993 10.87119,33.36993 L10.86723,33.36993 Z M10.79793,31.581 C11.22165,31.581 11.5434,31.74237 11.67903,31.88394 L11.67903,31.4721 C11.67903,31.00185 11.36223,30.73158 10.86723,30.73158 C10.45539,30.73158 10.12077,30.88008 9.88317,31.02165 L9.67725,30.64842 C9.90198,30.50685 10.34649,30.28212 10.91277,30.28212 C11.82654,30.28212 12.1869,30.78999 12.1869,31.50378 L12.1869,33.71148 L11.74932,33.71148 L11.68992,33.42834 C11.51766,33.62634 11.23452,33.79464 10.78407,33.79464 C10.05147,33.79464 9.50994,33.33132 9.50994,32.68188 C9.50994,32.04432 10.04454,31.581 10.79694,31.581 L10.79793,31.581 Z M14.2461,33.36993 C14.73516,33.36993 15.07572,33.08085 15.07572,32.67495 C15.07572,32.25717 14.7411,31.9869 14.23917,31.9869 C13.7313,31.9869 13.40262,32.2839 13.40262,32.67495 C13.40262,33.06105 13.7313,33.36993 14.2461,33.36993 L14.2461,33.36993 Z M14.17482,31.581 C14.60052,31.581 14.92128,31.74237 15.05592,31.88394 L15.05592,31.4721 C15.05592,31.00185 14.7411,30.73158 14.2461,30.73158 C13.83426,30.73158 13.49964,30.88008 13.26105,31.02165 L13.05513,30.64842 C13.28085,30.50685 13.72437,30.28212 14.29065,30.28212 C15.20442,30.28212 15.56478,30.78999 15.56478,31.50378 L15.56478,33.71148 L15.1272,33.71148 L15.06978,33.42834 C14.89554,33.62634 14.6124,33.79464 14.16195,33.79464 C13.42935,33.79464 12.88782,33.33132 12.88782,32.68188 C12.88782,32.04432 13.42242,31.581 14.17482,31.581 L14.17482,31.581 Z M17.98434,30.789 C17.21907,30.789 16.99434,31.39488 16.99434,32.10867 L16.99434,33.71247 L16.48449,33.71247 L16.48449,30.36627 L16.98939,30.36627 L16.98939,30.92463 C17.10819,30.59001 17.48439,30.28113 17.98929,30.28113 L17.98929,30.789 M20.27619,33.33825 C20.91969,33.33825 21.42459,32.82939 21.42459,32.05125 C21.42459,31.28499 20.94939,30.74445 20.29599,30.74445 C19.66635,30.74445 19.15155,31.21965 19.15155,32.05125 C19.15155,32.75217 19.59012,33.33825 20.2851,33.33825 L20.27619,33.33825 Z M18.65259,29.05848 L19.16739,29.05848 L19.16739,30.90582 C19.26936,30.73158 19.64952,30.28212 20.35044,30.28212 C21.29688,30.28212 21.94434,31.01472 21.94434,32.04432 C21.94434,33.06798 21.26124,33.79464 20.31084,33.79464 C19.58418,33.79464 19.22976,33.30558 19.1466,33.18381 L19.1466,33.70851 L18.65358,33.70851 L18.65358,29.05551 L18.65259,29.05848 Z M24.20649,33.33132 C24.92919,33.33132 25.44399,32.78484 25.44399,32.03838 C25.44399,31.29786 24.92919,30.74445 24.20649,30.74445 C23.48379,30.74445 22.98879,31.30479 22.98879,32.03838 C22.98879,32.79078 23.49963,33.33132 24.21342,33.33132 L24.20649,33.33132 Z M24.21639,30.28212 C25.22619,30.28212 25.95879,31.03452 25.95879,32.03838 C25.95879,33.04224 25.21629,33.79464 24.21243,33.79464 C23.20857,33.79464 22.47003,33.05511 22.47003,32.03838 C22.47003,31.02858 23.22243,30.28113 24.21936,30.28113 L24.21639,30.28212 Z" id="Shape" fill="#1E1E1E" fill-rule="nonzero"></path>
            <g id="Clipped" transform="translate(26.631000, 30.195000)">
                <mask id="mask-4" fill="white">
                    <use xlink:href="#path-3"></use>
                </mask>
                <g id="Path"></g>
                <path d="M1.5642,0.594 C0.79992,0.594 0.5742,1.19988 0.5742,1.91367 L0.5742,3.51747 L0.06633,3.51747 L0.06633,0.17127 L0.56826,0.17127 L0.56826,0.72864 C0.6831,0.396 1.05732,0.08514 1.5642,0.08514 L1.5642,0.594 M3.65112,0.54945 C3.00069,0.54945 2.51757,1.08405 2.51757,1.84932 C2.51757,2.62845 3.0195,3.13632 3.66399,3.13632 C4.35699,3.13632 4.80249,2.57004 4.80249,1.84932 C4.80249,1.03752 4.29759,0.54945 3.65409,0.54945 L3.65112,0.54945 Z M2.58786,4.0194 C2.71656,4.09563 3.11553,4.29462 3.59766,4.29462 C4.23522,4.29462 4.77576,4.03128 4.77576,3.28482 L4.77576,2.98782 C4.69854,3.11157 4.35006,3.59964 3.61746,3.59964 C2.65914,3.59964 2.00178,2.87298 2.00178,1.84932 C2.00178,0.81972 2.66508,0.08712 3.61053,0.08712 C4.3065,0.08712 4.68567,0.53064 4.79556,0.71082 L4.79556,0.17028 L5.28462409,0.17028 L5.28462409,3.05316 C5.2866,4.32036 4.56984,4.752 3.6036,4.752 C3.16602,4.752 2.69577,4.59756 2.4057,4.41738 L2.58687,4.01841 L2.58786,4.0194 Z" id="Shape" fill="#1E1E1E" fill-rule="nonzero" mask="url(#mask-4)"></path>
            </g>
            <path d="M17.98335,10.96128 L9.58122,6.11028 L17.98335,1.25928 L26.38449,6.11028 L17.98929,10.96128 L17.98335,10.96128 Z M17.44875,16.31322 L9.0486,16.31322 L9.0486,7.03692 L17.44875,11.88792 L17.44875,16.31322 Z M26.91909,16.31322 L18.52389,16.31322 L18.52389,11.88792 L26.92899,7.03692 L26.92899,16.31322 L26.91909,16.31322 Z M17.9883,0.02772 L7.9794,5.8014 L7.9794,17.38143 L27.9873,17.38143 L27.9873,5.8014 L17.98335,0.02772 L17.9883,0.02772 Z" id="Shape" fill="#1E1E1E" fill-rule="nonzero"></path>
            <polyline id="Path" fill="#BDEB18" fill-rule="nonzero" points="26.9181 7.03593 18.51696 11.88693 18.51696 16.31223 26.91909 16.31223 26.91909 7.03593"></polyline>
            <polyline id="Path" fill="#FC3F4D" fill-rule="nonzero" points="9.0486 16.31322 17.44875 16.31322 17.44875 11.88792 9.04761 7.03692 9.04761 16.31322"></polyline>
            <polyline id="Path" fill="#FFFFFF" fill-rule="nonzero" points="9.58122 6.11028 17.98335 10.96128 26.38449 6.11028 17.98929 1.25928 9.59409 6.11028"></polyline>
        </g>
    </g>
</svg>