<?xml version="1.0" encoding="UTF-8"?>
<svg width="24px" height="23px" viewBox="0 0 24 23" version="1.1" xmlns="http://www.w3.org/2000/svg" xmlns:xlink="http://www.w3.org/1999/xlink">
    <title>home-icon</title>
    <g id="home-icon" stroke="none" stroke-width="1" fill="none" fill-rule="evenodd">
        <g id="Group-Copy" fill="#FFFFFF" fill-rule="nonzero">
            <path d="M20.146,6.351 C20.242,6.447 20.37,6.497 20.5,6.497 C20.564,6.497 20.629,6.484 20.691,6.459 C20.878,6.382 21,6.199 21,5.997 L21,1.497 C21,1.221 20.776,0.997 20.5,0.997 L16,0.997 C15.798,0.997 15.615,1.119 15.538,1.306 C15.46,1.493 15.503,1.707 15.646,1.851 L20.146,6.351 Z" id="Path"></path>
            <polygon id="Path" points="3 11.618 3 22.997 10 22.997 10 15.997 14 15.997 14 22.997 21 22.997 21 11.618 12 2.618"></polygon>
            <path d="M23.963,11.808 C23.941,11.754 23.905,11.704 23.863,11.66 C23.859,11.656 23.857,11.649 23.853,11.644 L12.353,0.144 C12.162,-0.048 11.837,-0.048 11.646,0.144 L3,8.79 L0.146,11.644 C0.097,11.693 0.06,11.749 0.036,11.809 C0.013,11.867 0,11.931 0,11.997 C0,12.062 0.013,12.127 0.037,12.186 C0.058,12.24 0.094,12.29 0.136,12.334 C0.14,12.338 0.142,12.345 0.147,12.35 C0.336,12.54 0.656,12.54 0.847,12.353 C0.849,12.352 0.852,12.351 0.854,12.35 L3,10.204 L12,1.204 L21,10.204 L23.146,12.35 C23.148,12.351 23.15,12.352 23.152,12.353 C23.342,12.538 23.657,12.538 23.846,12.353 C23.848,12.352 23.851,12.351 23.853,12.35 C23.902,12.301 23.938,12.245 23.962,12.184 C23.986,12.126 24,12.063 24,11.997 C24,11.931 23.986,11.867 23.963,11.808 Z" id="Path"></path>
        </g>
    </g>
</svg>