<?xml version="1.0" encoding="UTF-8"?>
<svg width="24px" height="24px" viewBox="0 0 24 24" version="1.1" xmlns="http://www.w3.org/2000/svg" xmlns:xlink="http://www.w3.org/1999/xlink">
    <title>Favoriet-hover</title>
    <g id="Favoriet-hover" stroke="none" stroke-width="1" fill="none" fill-rule="evenodd">
        <g id="Group" transform="translate(0.000000, 1.500000)" fill="#F27D2F">
            <path d="M14.4756,1.34531 C15.2612,1.03334 16.1019,0.87326 16.95,0.87326 C17.7981,0.87326 18.6388,1.03334 19.4244,1.34531 C20.21,1.65724 20.9264,2.11546 21.5317,2.69578 C22.1375,3.27606 22.6205,3.96736 22.9508,4.73135 C23.2812,5.49546 23.4518,6.31604 23.4518,7.14584 C23.4518,7.97564 23.2812,8.79623 22.9508,9.5603 C22.6205,10.3243 22.1376,11.0155 21.5319,11.5957 C21.5318,11.5958 21.532,11.5957 21.5319,11.5957 L12.6919,20.0674 C12.3051,20.4381 11.6949,20.4381 11.3081,20.0674 L2.46809,11.5957 C1.24447,10.4231 0.548706,8.82336 0.548706,7.14584 C0.548706,5.46832 1.24447,3.86858 2.46809,2.69594 C3.69027,1.52469 5.33915,0.87377 7.05,0.87377 C8.76084,0.87377 10.4097,1.52469 11.6319,2.69594 L12,3.0487 L12.3679,2.6961 C12.368,2.69605 12.3679,2.69615 12.3679,2.6961 C12.9733,2.11571 13.69,1.65727 14.4756,1.34531 Z M20.1479,4.13975 C19.7318,3.74082 19.2355,3.42221 18.6863,3.20412 C18.137,2.98601 17.5469,2.87326 16.95,2.87326 C16.3531,2.87326 15.763,2.98601 15.2137,3.20412 C14.6645,3.42221 14.1682,3.74082 13.7521,4.13975 L12.6919,5.15575 C12.3051,5.52643 11.6949,5.52643 11.3081,5.15575 L10.2481,4.13991 C9.40688,3.33376 8.25722,2.87377 7.05,2.87377 C5.84277,2.87377 4.69311,3.33376 3.8519,4.13991 C3.01214,4.94469 2.54871,6.02688 2.54871,7.14584 C2.54871,8.2648 3.01214,9.347 3.8519,10.1518 L12,17.9604 L20.1481,10.1518 C20.5643,9.7531 20.8922,9.2819 21.115,8.76661 C21.3378,8.25142 21.4518,7.70081 21.4518,7.14584 C21.4518,6.59088 21.3378,6.04026 21.115,5.52507 C20.8922,5.00977 20.5641,4.53842 20.1479,4.13975 Z" id="Shape"></path>
        </g>
    </g>
</svg>