<?xml version="1.0" encoding="UTF-8"?>
<svg width="24px" height="24px" viewBox="0 0 24 24" version="1.1" xmlns="http://www.w3.org/2000/svg" xmlns:xlink="http://www.w3.org/1999/xlink">
    <title>Winkelwagen - wit</title>
    <g id="Winkelwagen---wit" stroke="none" stroke-width="1" fill="none" fill-rule="evenodd">
        <g id="Group" transform="translate(0.000000, 0.500000)" fill="#FFFFFF">
            <path d="M7,20.125 C7,19.0665 7.89543,18.2083 9,18.2083 C10.1046,18.2083 11,19.0665 11,20.125 C11,21.1836 10.1046,22.0417 9,22.0417 C7.89543,22.0417 7,21.1836 7,20.125 Z" id="Path"></path>
            <path d="M18,20.125 C18,19.0665 18.8954,18.2083 20,18.2083 C21.1046,18.2083 22,19.0665 22,20.125 C22,21.1836 21.1046,22.0417 20,22.0417 C18.8954,22.0417 18,21.1836 18,20.125 Z" id="Path"></path>
            <path d="M0,0.958333 C0,0.42906 0.447715,0 1,0 L5,0 C5.47663,0 5.88701,0.322369 5.98055,0.770254 L6.82043,4.79167 L23,4.79167 C23.298,4.79167 23.5805,4.91906 23.7705,5.13912 C23.9605,5.35918 24.0381,5.64897 23.9823,5.92952 L22.3809,13.9771 C22.2437,14.6389 21.868,15.2334 21.3195,15.6565 C20.7738,16.0776 20.0916,16.3022 19.3914,16.2917 L9.68864,16.2917 C8.98838,16.3022 8.3062,16.0776 7.76048,15.6565 C7.21225,15.2336 6.83664,14.6394 6.69933,13.9779 C6.69927,13.9777 6.69939,13.9782 6.69933,13.9779 L5.02879,5.97924 C5.02201,5.95278 5.01638,5.92589 5.01195,5.89862 L4.18032,1.91667 L1,1.91667 C0.447715,1.91667 0,1.48761 0,0.958333 Z M7.22073,6.70833 L8.66084,13.6037 C8.70656,13.8243 8.83179,14.0225 9.01461,14.1635 C9.19743,14.3046 9.42619,14.3795 9.66084,14.3752 L9.68,14.375 L19.4,14.375 L19.4192,14.3752 C19.6538,14.3795 19.8826,14.3046 20.0654,14.1635 C20.2474,14.0231 20.3723,13.8262 20.4185,13.6068 L21.7913,6.70833 L7.22073,6.70833 Z" id="Shape"></path>
        </g>
    </g>
</svg>